<svg width="400" height="364" viewBox="0 0 400 364" fill="none" xmlns="http://www.w3.org/2000/svg">
<g clip-path="url(#clip0_3670_1650)">
<path d="M15.4331 194.25C15.4331 194.25 17.6556 263.223 75.2391 309.206C132.823 355.188 212.621 358.474 277.217 362.852C341.813 367.23 391.436 330.645 398.879 275.37C406.323 220.096 356.997 203.868 330.212 140.939C303.427 78.0095 305.851 57.327 249.187 18.625C192.523 -20.0769 103.873 3.69031 57.4017 69.9722C10.9306 136.254 15.4331 194.25 15.4331 194.25Z" fill="#FF69B4"/>
<path opacity="0.7" d="M15.4331 194.25C15.4331 194.25 17.6556 263.223 75.2391 309.206C132.823 355.188 212.621 358.474 277.217 362.852C341.813 367.23 391.436 330.645 398.879 275.37C406.323 220.096 356.997 203.868 330.212 140.939C303.427 78.0095 305.851 57.327 249.187 18.625C192.523 -20.0769 103.873 3.69031 57.4017 69.9722C10.9306 136.254 15.4331 194.25 15.4331 194.25Z" fill="white"/>
<path d="M42.3804 104.162V79.4751C42.3804 62.0018 56.9032 47.7855 74.7502 47.7855C92.5971 47.7855 107.12 62.0018 107.12 79.4751V104.162H120.024V79.4751C120.024 55.0373 99.7149 35.1499 74.7502 35.1499C49.7855 35.1499 29.4766 55.0373 29.4766 79.4751V104.162H42.3804Z" stroke="#263238" stroke-width="0.762571" stroke-linecap="round" stroke-linejoin="round"/>
<path d="M123.53 104.335H24.6865V186.098H123.53V104.335Z" stroke="#263238" stroke-width="0.762571" stroke-linecap="round" stroke-linejoin="round"/>
<path d="M84.3869 138.294C84.3034 135.495 83.1328 132.839 81.1235 130.889C79.1142 128.938 76.4242 127.848 73.6241 127.848C70.824 127.848 68.134 128.938 66.1247 130.889C64.1154 132.839 62.9448 135.495 62.8613 138.294C62.8729 140.207 63.4051 142.081 64.4008 143.715C65.3965 145.348 66.8182 146.68 68.5133 147.567L66.7028 166.133H80.5454L78.7349 147.567C80.43 146.68 81.8517 145.348 82.8475 143.715C83.8432 142.081 84.3753 140.207 84.3869 138.294V138.294Z" stroke="#263238" stroke-width="0.762571" stroke-linecap="round" stroke-linejoin="round"/>
<path d="M185.147 188.751L160.537 187.132V186.73L157.509 186.931L154.492 186.73V187.132L129.882 188.751L111.728 338.003H129.882L156.906 219.004H158.122L185.147 338.003H203.3L185.147 188.751Z" fill="#263238" stroke="#263238" stroke-width="0.762571" stroke-linecap="round" stroke-linejoin="round"/>
<path d="M111.728 337.993L107.293 344.852L93.5747 350.907C92.8521 351.306 92.248 351.889 91.824 352.598C91.3999 353.306 91.1711 354.114 91.1606 354.94V360.18H130.284C130.515 357.362 130.515 354.529 130.284 351.711C129.882 347.678 129.882 337.993 129.882 337.993H111.728Z" fill="#4C4C4C" stroke="#263238" stroke-width="0.762571" stroke-linecap="round" stroke-linejoin="round"/>
<path d="M91.1606 355.745V360.18H130.284C130.284 360.18 130.466 358.264 130.466 355.745H91.1606Z" fill="#263238" stroke="#263238" stroke-width="0.762571" stroke-linecap="round" stroke-linejoin="round"/>
<path d="M203.223 337.993L207.659 344.852L221.377 350.907C222.1 351.306 222.704 351.889 223.128 352.598C223.552 353.306 223.781 354.114 223.791 354.94V360.18H184.668C184.437 357.362 184.437 354.529 184.668 351.711C185.07 347.678 185.07 337.993 185.07 337.993H203.223Z" fill="#4C4C4C" stroke="#263238" stroke-width="0.762571" stroke-linecap="round" stroke-linejoin="round"/>
<path d="M223.81 355.745V360.18H184.668C184.668 360.18 184.495 358.264 184.486 355.745H223.81Z" fill="#263238" stroke="#263238" stroke-width="0.762571" stroke-linecap="round" stroke-linejoin="round"/>
<path d="M119.459 119.318C119.459 119.318 90.7197 159.706 90.7197 162.666C90.7197 165.626 95.2892 188.483 102.551 190.629C109.812 192.775 113.845 189.02 115.186 181.49C116.527 173.96 111.958 163.202 111.958 163.202L125.369 151.103L119.459 119.318Z" fill="#FF69B4" stroke="#263238" stroke-width="0.762571" stroke-linecap="round" stroke-linejoin="round"/>
<path d="M113.883 180.417C113.883 180.417 122.218 179.066 124.373 179.603C126.528 180.139 128.138 185.255 128.138 185.255C128.138 185.255 128.943 192.784 127.592 194.394C126.241 196.003 119.794 197.89 117.112 198.427C114.429 198.963 108.768 192.784 106.574 189.019C104.38 185.255 108.231 178.798 113.883 180.417Z" fill="#CCCCCC" stroke="#263238" stroke-width="0.762571" stroke-linecap="round" stroke-linejoin="round"/>
<path d="M125.503 117.488L119.458 119.318L128.981 182.879H185.578L194.19 119.682L186.497 116.75L158.103 110.523L125.503 117.488Z" fill="#FF69B4" stroke="#263238" stroke-width="0.762571" stroke-linecap="round" stroke-linejoin="round"/>
<path d="M188.691 138.736L187.417 147.894L177.521 150.27L167.443 146.246L168.181 137.998L188.691 138.736Z" fill="#263238" stroke="#263238" stroke-width="0.762571" stroke-linecap="round" stroke-linejoin="round"/>
<path d="M178.163 147.894C179.126 147.894 179.907 147.113 179.907 146.15C179.907 145.187 179.126 144.407 178.163 144.407C177.201 144.407 176.42 145.187 176.42 146.15C176.42 147.113 177.201 147.894 178.163 147.894Z" fill="#4C4C4C" stroke="#263238" stroke-width="0.762571" stroke-linecap="round" stroke-linejoin="round"/>
<path d="M152.058 122.249L157.375 128.475L150.593 171.699L157.739 183.061L166.169 171.153L159.023 128.657L165.068 122.795L158.659 114.556L152.058 122.249Z" fill="#263238" stroke="#263238" stroke-width="0.762571" stroke-linecap="round" stroke-linejoin="round"/>
<path d="M146.933 111.443L122.572 117.488L123.31 120.419L147.115 113.819L146.933 111.443Z" fill="#263238" stroke="#263238" stroke-width="0.762571" stroke-linecap="round" stroke-linejoin="round"/>
<path d="M166.898 110.706L191.259 116.75L190.531 119.682L166.716 113.091L166.898 110.706Z" fill="#263238" stroke="#263238" stroke-width="0.762571" stroke-linecap="round" stroke-linejoin="round"/>
<path d="M191.239 116.75C191.239 116.75 200.455 118.829 206.097 122.057C211.74 125.285 213.09 132.547 209.862 140.613C206.634 148.679 196.69 147.606 192.121 145.403C187.551 143.2 186.2 135.191 187.005 131.694" fill="#FF69B4"/>
<path d="M191.239 116.75C191.239 116.75 200.455 118.829 206.097 122.057C211.74 125.285 213.09 132.547 209.862 140.613C206.634 148.679 196.69 147.606 192.121 145.403C187.551 143.2 186.2 135.191 187.005 131.694" stroke="#263238" stroke-width="0.762571" stroke-linecap="round" stroke-linejoin="round"/>
<path d="M148.035 108.33L145.286 110.16L146.014 128.658L157.921 120.238L170.375 128.84L171.477 110.524L168.181 107.774L148.035 108.33Z" fill="#FF69B4" stroke="#263238" stroke-width="0.762571" stroke-linecap="round" stroke-linejoin="round"/>
<path d="M172.08 86.3251C172.08 86.3251 178.844 84.6774 180.118 77.9141C181.392 71.1508 169.206 62.9219 160.757 61.4658C152.308 60.0097 139.921 68.7751 137.91 74.8103C135.898 80.8455 143.753 86.8711 152.164 88.1548C160.575 89.4385 172.08 86.3251 172.08 86.3251Z" fill="#263238" stroke="#263238" stroke-width="0.762571" stroke-linecap="round" stroke-linejoin="round"/>
<path d="M146.866 87.4265C146.866 87.4265 143.207 81.7553 142.297 86.6889C141.386 91.6224 145.218 93.8162 146.866 93.6342C148.514 93.4522 146.866 87.4265 146.866 87.4265Z" fill="#CCCCCC" stroke="#263238" stroke-width="0.762571" stroke-linecap="round" stroke-linejoin="round"/>
<path d="M170.633 87.4265C170.633 87.4265 174.293 81.7553 175.203 86.6889C176.113 91.6224 172.329 93.8162 170.633 93.6342C168.938 93.4522 170.633 87.4265 170.633 87.4265Z" fill="#CCCCCC" stroke="#263238" stroke-width="0.762571" stroke-linecap="round" stroke-linejoin="round"/>
<path d="M147.671 98.6162V110.706L157.921 120.238L169.465 110.342V98.9898L147.671 98.6162Z" fill="#CCCCCC" stroke="#263238" stroke-width="0.762571" stroke-linecap="round" stroke-linejoin="round"/>
<path d="M146.139 83.7674C146.139 83.7674 145.583 95.1002 146.503 98.7597C147.422 102.419 153.448 110.092 158.199 111.74C162.951 113.388 169.532 103.511 170.998 100.245C172.464 96.9778 171.908 83.0586 171.908 83.0586C171.908 83.0586 169.906 78.2687 165.882 76.8509C161.859 75.4331 149.424 72.8466 146.139 83.7674Z" fill="#CCCCCC" stroke="#263238" stroke-width="0.762571" stroke-linecap="round" stroke-linejoin="round"/>
<path d="M153.735 89.7832C153.735 90.6453 153.343 91.3447 152.854 91.3447C152.365 91.3447 151.973 90.6453 151.973 89.7832C151.973 88.921 152.365 88.2217 152.854 88.2217C153.343 88.2217 153.735 88.921 153.735 89.7832Z" fill="#263238"/>
<path d="M164.953 89.7832C164.953 90.6453 164.56 91.3447 164.071 91.3447C163.583 91.3447 163.19 90.6453 163.19 89.7832C163.19 88.921 163.583 88.2217 164.071 88.2217C164.56 88.2217 164.953 88.921 164.953 89.7832Z" fill="#263238"/>
<path d="M155.641 94.1517C155.461 94.1087 155.274 94.107 155.093 94.1469C154.912 94.1868 154.742 94.2671 154.597 94.3819C154.451 94.4966 154.334 94.6429 154.253 94.8096C154.172 94.9763 154.13 95.1591 154.13 95.3444C154.13 95.5296 154.172 95.7124 154.253 95.8791C154.334 96.0458 154.451 96.1921 154.597 96.3068C154.742 96.4216 154.912 96.502 155.093 96.5418C155.274 96.5817 155.461 96.58 155.641 96.537C156.026 96.5452 156.402 96.4199 156.705 96.1826C156.988 96.5154 157.339 96.7841 157.734 96.9708C158.129 97.1574 158.559 97.2577 158.996 97.2649C159.433 97.2722 159.866 97.1862 160.268 97.0128C160.669 96.8394 161.028 96.5825 161.322 96.2592C161.607 96.4442 161.94 96.5408 162.28 96.537C162.46 96.58 162.648 96.5817 162.829 96.5418C163.01 96.502 163.179 96.4216 163.325 96.3068C163.47 96.1921 163.588 96.0458 163.668 95.8791C163.749 95.7124 163.791 95.5296 163.791 95.3444C163.791 95.1591 163.749 94.9763 163.668 94.8096C163.588 94.6429 163.47 94.4966 163.325 94.3819C163.179 94.2671 163.01 94.1868 162.829 94.1469C162.648 94.107 162.46 94.1087 162.28 94.1517" fill="#CCCCCC"/>
<path d="M155.641 94.1517C155.461 94.1087 155.274 94.107 155.093 94.1469C154.912 94.1868 154.742 94.2671 154.597 94.3819C154.451 94.4966 154.334 94.6429 154.253 94.8096C154.172 94.9763 154.13 95.1591 154.13 95.3444C154.13 95.5296 154.172 95.7124 154.253 95.8791C154.334 96.0458 154.451 96.1921 154.597 96.3068C154.742 96.4216 154.912 96.502 155.093 96.5418C155.274 96.5817 155.461 96.58 155.641 96.537C156.026 96.5452 156.402 96.4199 156.705 96.1826C156.988 96.5154 157.339 96.7841 157.734 96.9708C158.129 97.1574 158.559 97.2577 158.996 97.2649C159.433 97.2722 159.866 97.1862 160.268 97.0128C160.669 96.8394 161.028 96.5825 161.322 96.2592C161.607 96.4442 161.94 96.5408 162.28 96.537C162.46 96.58 162.648 96.5817 162.829 96.5418C163.01 96.502 163.179 96.4216 163.325 96.3068C163.47 96.1921 163.588 96.0458 163.668 95.8791C163.749 95.7124 163.791 95.5296 163.791 95.3444C163.791 95.1591 163.749 94.9763 163.668 94.8096C163.588 94.6429 163.47 94.4966 163.325 94.3819C163.179 94.2671 163.01 94.1868 162.829 94.1469C162.648 94.107 162.46 94.1087 162.28 94.1517" stroke="#263238" stroke-width="0.762571" stroke-linecap="round" stroke-linejoin="round"/>
<path d="M157.098 101.653H160.92" stroke="#263238" stroke-width="0.762571" stroke-linecap="round" stroke-linejoin="round"/>
<path d="M145.717 86.5169C145.717 86.5169 145.851 90.1955 147.077 89.2376C148.303 88.2796 148.706 82.0337 147.623 81.2194C146.541 80.4051 145.717 84.6202 145.717 86.5169Z" fill="#263238" stroke="#263238" stroke-width="0.762571" stroke-linecap="round" stroke-linejoin="round"/>
<path d="M169.312 86.5169C169.312 86.5169 169.455 90.1955 170.672 89.2376C171.888 88.2796 172.31 82.0337 171.218 81.2194C170.126 80.4051 169.312 84.6202 169.312 86.5169Z" fill="#263238" stroke="#263238" stroke-width="0.762571" stroke-linecap="round" stroke-linejoin="round"/>
<path d="M145.717 83.5281C145.717 83.5281 146.129 83.8634 146.119 84.0262C147.891 84.9842 151.963 86.7469 158.573 87.1013C163.261 87.2633 167.902 86.1261 171.984 83.8155C171.984 83.3269 171.984 83.0395 171.984 83.03C171.821 78.7478 168.641 75.8931 164.704 74.801C160.833 73.7354 156.723 73.9402 152.978 75.3854C151.079 76.1016 149.403 77.3081 148.121 78.882C147.633 79.4184 145.046 82.9916 145.717 83.5281Z" fill="#4C4C4C" stroke="#263238" stroke-width="0.762571" stroke-linecap="round" stroke-linejoin="round"/>
<path d="M146.139 83.7676C150.224 84.6712 154.419 84.9777 158.592 84.6777C166.457 84.3136 171.927 83.7676 171.927 83.7676C168.313 87.1557 163.648 89.2044 158.707 89.5729C156.294 89.7296 153.881 89.2806 151.686 88.2667C149.49 87.2528 147.584 85.7062 146.139 83.7676Z" fill="#4C4C4C" stroke="#263238" stroke-width="0.762571" stroke-linecap="round" stroke-linejoin="round"/>
<path d="M126.059 138.736L127.333 147.894L137.229 150.27L147.297 146.246L146.569 137.998L126.059 138.736Z" fill="#263238" stroke="#263238" stroke-width="0.762571" stroke-linecap="round" stroke-linejoin="round"/>
<path d="M136.587 147.894C137.55 147.894 138.331 147.113 138.331 146.15C138.331 145.187 137.55 144.407 136.587 144.407C135.624 144.407 134.844 145.187 134.844 146.15C134.844 147.113 135.624 147.894 136.587 147.894Z" fill="#4C4C4C" stroke="#263238" stroke-width="0.762571" stroke-linecap="round" stroke-linejoin="round"/>
<path d="M186.22 182.295H128.138V191.434H186.22V182.295Z" fill="#4C4C4C" stroke="#263238" stroke-width="0.762571" stroke-linecap="round" stroke-linejoin="round"/>
<path d="M139.298 182.831H126.663C125.25 182.831 124.105 183.976 124.105 185.388V191.567C124.105 192.98 125.25 194.125 126.663 194.125H139.298C140.711 194.125 141.856 192.98 141.856 191.567V185.388C141.856 183.976 140.711 182.831 139.298 182.831Z" fill="#4C4C4C" stroke="#263238" stroke-width="0.762571" stroke-linecap="round" stroke-linejoin="round"/>
<path d="M185.549 182.831H172.914C171.501 182.831 170.356 183.976 170.356 185.388V191.567C170.356 192.98 171.501 194.125 172.914 194.125H185.549C186.962 194.125 188.107 192.98 188.107 191.567V185.388C188.107 183.976 186.962 182.831 185.549 182.831Z" fill="#4C4C4C" stroke="#263238" stroke-width="0.762571" stroke-linecap="round" stroke-linejoin="round"/>
<path d="M164.435 182.831H151.8V190.897H164.435V182.831Z" fill="white" stroke="#263238" stroke-width="0.762571" stroke-linecap="round" stroke-linejoin="round"/>
<path d="M111.996 163.202C111.996 163.202 103.93 162.666 100.97 157.55" stroke="#263238" stroke-width="0.762571" stroke-linecap="round" stroke-linejoin="round"/>
<path d="M201.681 139.54C209.036 139.54 214.997 133.278 214.997 125.554C214.997 117.829 209.036 111.567 201.681 111.567C194.327 111.567 188.366 117.829 188.366 125.554C188.366 133.278 194.327 139.54 201.681 139.54Z" fill="#FF69B4" stroke="#263238" stroke-width="0.762571" stroke-linecap="round" stroke-linejoin="round"/>
<path d="M201.681 127.815C207.437 127.815 212.104 123.633 212.104 118.474C212.104 113.316 207.437 109.134 201.681 109.134C195.925 109.134 191.258 113.316 191.258 118.474C191.258 123.633 195.925 127.815 201.681 127.815Z" fill="#FF69B4" stroke="#263238" stroke-width="0.762571" stroke-linecap="round" stroke-linejoin="round"/>
<path d="M201.681 120.946C207.437 120.946 212.104 116.764 212.104 111.606C212.104 106.447 207.437 102.266 201.681 102.266C195.925 102.266 191.258 106.447 191.258 111.606C191.258 116.764 195.925 120.946 201.681 120.946Z" fill="#CCCCCC" stroke="#263238" stroke-width="0.762571" stroke-linecap="round" stroke-linejoin="round"/>
<path d="M184.936 91.4695C184.936 91.4695 185.118 105.245 185.817 109.307C186.517 113.369 189.352 118.666 193.242 118.666C195.832 118.602 198.397 118.127 200.838 117.258C200.838 117.258 205.427 119.73 209.843 119.021C214.259 118.312 213.551 112.133 213.551 109.441C213.551 106.749 213.024 86.8329 213.024 86.8329C213.024 86.8329 213.378 84.917 211.606 84.5434C210.737 84.3477 209.852 84.229 208.962 84.1889V79.9451C208.636 79.4591 208.184 79.0712 207.654 78.8231C207.124 78.575 206.536 78.476 205.954 78.5369C203.664 78.5369 203.482 79.0638 203.482 79.0638V75.1744C203.482 75.1744 201.566 72.0802 199.066 73.5842C198.562 73.8735 198.137 74.2829 197.83 74.7759C197.522 75.269 197.342 75.8304 197.303 76.4102L197.121 80.1271C197.121 80.1271 192.887 78.5369 192.533 81.0085C192.178 83.48 191.469 98.7117 191.469 98.7117C191.218 96.3168 190.747 93.9502 190.061 91.6419C189.18 89.3428 184.936 89.3428 184.936 91.4695Z" fill="#CCCCCC" stroke="#263238" stroke-width="0.762571" stroke-linecap="round" stroke-linejoin="round"/>
<path d="M197.122 80.1655L197.476 96.4127" stroke="#263238" stroke-width="0.762571" stroke-linecap="round" stroke-linejoin="round"/>
<path d="M203.482 79.1021L203.664 96.585" stroke="#263238" stroke-width="0.762571" stroke-linecap="round" stroke-linejoin="round"/>
<path d="M208.962 84.2271L208.607 96.4124" stroke="#263238" stroke-width="0.762571" stroke-linecap="round" stroke-linejoin="round"/>
<path d="M194.832 96.2402L210.906 96.9395" stroke="#263238" stroke-width="0.762571" stroke-linecap="round" stroke-linejoin="round"/>
<path d="M191.47 98.7119C191.475 99.3786 191.634 100.035 191.934 100.63C192.235 101.225 192.67 101.742 193.204 102.141C194.947 103.234 198.875 106.069 199.306 110.648" stroke="#263238" stroke-width="0.762571" stroke-linecap="round" stroke-linejoin="round"/>
<path d="M297.574 55.4209V57.5189H292.468V64.9527H298.743V67.0986H290.121V46.2148H298.743V48.332H292.468V55.4593L297.574 55.4209Z" fill="#263238"/>
<path d="M305.525 46.1772C308.802 46.1772 310.181 47.8441 310.181 50.9671V52.6723C310.181 54.9714 309.376 56.3988 307.585 56.964C309.501 57.5292 310.21 59.0811 310.21 61.3227V64.5798C310.141 65.4344 310.283 66.2927 310.622 67.0801H308.265C307.939 66.2793 307.808 65.4125 307.882 64.5511V61.2653C307.882 58.9087 306.78 58.1614 304.836 58.1614H303.197V67.0993H300.87V46.2156L305.525 46.1772ZM304.922 56.0252C306.78 56.0252 307.882 55.4216 307.882 53.1513V51.1491C307.882 49.2332 307.192 48.2752 305.468 48.2752H303.197V56.006L304.922 56.0252Z" fill="#263238"/>
<path d="M317.279 46.1772C320.565 46.1772 321.935 47.8441 321.935 50.9671V52.6723C321.935 54.9714 321.13 56.3988 319.339 56.964C321.255 57.5292 321.964 59.0811 321.964 61.3227V64.5798C321.893 65.4354 322.038 66.2949 322.385 67.0801H320.029C319.698 66.2805 319.563 65.4134 319.636 64.5511V61.2653C319.636 58.9087 318.534 58.1614 316.59 58.1614H314.951V67.0993H312.624V46.2156L317.279 46.1772ZM316.733 56.0252C318.582 56.0252 319.684 55.4216 319.684 53.1513V51.1491C319.684 49.2332 319.004 48.2752 317.27 48.2752H314.999V56.006L316.733 56.0252Z" fill="#263238"/>
<path d="M324.206 51.216C324.206 48.0259 325.787 45.9663 328.996 45.9663C332.205 45.9663 333.786 48.0259 333.786 51.216V62.0219C333.786 65.1832 332.205 67.2715 328.996 67.2715C325.787 67.2715 324.206 65.1832 324.206 62.0219V51.216ZM326.505 62.1368C326.505 64.0528 327.31 65.1544 328.977 65.1544C330.644 65.1544 331.458 64.0528 331.458 62.1368V51.101C331.458 49.1851 330.682 48.0834 328.977 48.0834C327.272 48.0834 326.505 49.2138 326.505 51.101V62.1368Z" fill="#263238"/>
<path d="M340.683 46.1772C343.969 46.1772 345.339 47.8441 345.339 50.9671V52.6723C345.339 54.9714 344.534 56.3988 342.742 56.964C344.658 57.5292 345.367 59.0811 345.367 61.3227V64.5798C345.297 65.4354 345.442 66.2949 345.789 67.0801H343.432C343.101 66.2805 342.967 65.4134 343.039 64.5511V61.2653C343.039 58.9087 341.938 58.1614 339.993 58.1614H338.355V67.0993H335.989V46.2156L340.683 46.1772ZM340.089 56.0252C341.938 56.0252 343.039 55.4216 343.039 53.1513V51.1491C343.039 49.2332 342.359 48.2752 340.625 48.2752H338.355V56.006L340.089 56.0252Z" fill="#263238"/>
<path d="M277.821 185.773V187.89H273.031V196.933H270.704V176.049H279V178.166H273.031V185.773H277.821Z" fill="#263238"/>
<path d="M280.647 181.097C280.647 177.907 282.237 175.848 285.437 175.848C288.636 175.848 290.227 177.907 290.227 181.097V191.903C290.227 195.065 288.646 197.153 285.437 197.153C282.228 197.153 280.647 195.065 280.647 191.903V181.097ZM282.946 192.018C282.946 193.934 283.751 195.036 285.427 195.036C287.104 195.036 287.899 193.934 287.899 192.018V180.973C287.899 179.057 287.123 177.955 285.427 177.955C283.732 177.955 282.946 179.086 282.946 180.973V192.018Z" fill="#263238"/>
<path d="M297.095 176.049C300.371 176.049 301.751 177.716 301.751 180.839V182.544C301.751 184.843 300.946 186.271 299.155 186.836C301.071 187.401 301.78 188.953 301.78 191.195V194.452C301.709 195.307 301.854 196.167 302.201 196.952H299.845C299.509 196.154 299.374 195.286 299.452 194.423V191.137C299.452 188.781 298.35 188.034 296.405 188.034H294.767V196.952H292.439V176.068L297.095 176.049ZM296.501 185.888C298.35 185.888 299.452 185.284 299.452 183.014V181.012C299.452 179.096 298.762 178.138 297.038 178.138H294.767V185.888H296.501Z" fill="#263238"/>
<path d="M308.878 176.049C312.135 176.049 313.419 177.601 313.419 180.676V181.634C313.419 183.847 312.787 185.217 310.967 185.782C312.998 186.357 313.774 187.966 313.774 190.265V192.018C313.774 195.16 312.25 196.914 308.984 196.914H304.194V176.03L308.878 176.049ZM308.313 184.91C310.162 184.91 311.12 184.316 311.12 182.132V180.906C311.12 179.057 310.488 178.166 308.821 178.166H306.522V184.872L308.313 184.91ZM309.003 194.816C310.698 194.816 311.474 193.925 311.474 191.942V190.093C311.474 187.765 310.516 186.989 308.553 186.989H306.522V194.777L309.003 194.816Z" fill="#263238"/>
<path d="M318.218 176.049V196.933H315.891V176.049H318.218Z" fill="#263238"/>
<path d="M325.499 176.049C328.756 176.049 330.289 177.965 330.289 181.242V191.779C330.289 194.979 328.794 196.943 325.499 196.943H320.613V176.059L325.499 176.049ZM325.499 194.816C327.175 194.816 327.98 193.772 327.98 191.865V181.098C327.98 179.182 327.175 178.147 325.47 178.147H322.96V194.797L325.499 194.816Z" fill="#263238"/>
<path d="M337.321 176.049C340.568 176.049 342.062 177.965 342.062 181.242V191.779C342.062 194.979 340.568 196.943 337.321 196.943H332.425V176.059L337.321 176.049ZM337.321 194.816C338.987 194.816 339.792 193.772 339.792 191.865V181.098C339.792 179.182 338.987 178.147 337.292 178.147H334.782V194.797L337.321 194.816Z" fill="#263238"/>
<path d="M351.671 185.294V187.382H346.565V194.816H352.839V196.933H344.218V176.049H352.839V178.166H346.565V185.294H351.671Z" fill="#263238"/>
<path d="M357.045 196.933H354.957V176.049H357.926L362.716 191.147V176.049H364.776V196.933H362.352L357.016 180.044L357.045 196.933Z" fill="#263238"/>
<path d="M255.941 131.532L277.256 81.1333H290.045V131.532H295.582V142.185H290.045V155.711H278.549V142.185H255.941V131.532ZM278.53 131.532V103.502L266.708 131.522L278.53 131.532Z" fill="#263238"/>
<path d="M299.95 99.0277C299.95 87.101 306.234 80.2803 317.739 80.2803C329.244 80.2803 335.538 87.101 335.538 99.0277V137.816C335.538 149.752 329.244 156.563 317.739 156.563C306.234 156.563 299.95 149.752 299.95 137.816V99.0277ZM311.666 138.563C311.666 143.889 314.013 145.911 317.739 145.911C321.466 145.911 323.813 143.889 323.813 138.563V98.3284C323.813 92.9925 321.475 90.9712 317.739 90.9712C314.003 90.9712 311.666 92.9925 311.666 98.3284V138.563Z" fill="#263238"/>
<path d="M365.686 99.4588C365.686 92.753 363.349 90.9329 359.613 90.9329C355.876 90.9329 353.539 92.9542 353.539 98.2901V103.08H342.465V99.0277C342.465 87.101 348.423 80.2803 359.938 80.2803C371.453 80.2803 377.412 87.101 377.412 99.0277V100.944C377.412 108.933 374.854 113.943 369.202 116.271C375.065 118.829 377.412 124.366 377.412 131.934V137.797C377.412 149.733 371.443 156.544 359.938 156.544C348.433 156.544 342.465 149.733 342.465 137.797V131.618H353.539V138.544C353.539 143.87 355.886 145.892 359.613 145.892C363.339 145.892 365.686 144.081 365.686 137.481V131.618C365.686 124.692 363.349 122.134 358.022 122.134H354.095V111.5H358.674C363.042 111.5 365.705 109.585 365.705 103.616L365.686 99.4588Z" fill="#263238"/>
<path d="M45.5029 359.758H31.8423L50.0533 232.817H63.7139L45.5029 359.758Z" fill="#263238" stroke="#263238" stroke-width="0.762571" stroke-miterlimit="10"/>
<path d="M72.8243 359.758H86.4753L68.2643 232.817H54.6133L72.8243 359.758Z" fill="white" stroke="#263238" stroke-width="0.762571" stroke-miterlimit="10"/>
<path d="M239.31 359.758H225.659L243.86 232.817H257.521L239.31 359.758Z" fill="#263238" stroke="#263238" stroke-width="0.762571" stroke-miterlimit="10"/>
<path d="M266.631 359.758H280.282L262.071 232.817H248.42L266.631 359.758Z" fill="white" stroke="#263238" stroke-width="0.762571" stroke-miterlimit="10"/>
<path d="M276.172 212.911H15.6719V238.163H276.172V212.911Z" fill="#FF69B4" stroke="#263238" stroke-width="0.762571" stroke-miterlimit="10"/>
<path d="M282.523 212.911H22.0229V238.163H282.523V212.911Z" fill="#FF69B4" stroke="#263238" stroke-width="0.762571" stroke-miterlimit="10"/>
<path d="M26.2861 238.163H48.3961L59.8246 212.911H37.7147L26.2861 238.163Z" fill="#263238"/>
<path d="M113.806 212.911H91.6961L80.2676 238.163H102.378L113.806 212.911Z" fill="#263238"/>
<path d="M275.741 212.911H253.631L242.212 238.163H264.322L275.741 212.911Z" fill="#263238"/>
<path d="M221.769 212.911H199.65L188.231 238.163H210.341L221.769 212.911Z" fill="#263238"/>
<path d="M167.788 212.911H145.678L134.25 238.163H156.359L167.788 212.911Z" fill="#263238"/>
<path d="M281.096 224.11H237.988" stroke="#263238" stroke-width="0.762571" stroke-miterlimit="10"/>
<path d="M280.34 228.335H273.538" stroke="#263238" stroke-width="0.762571" stroke-miterlimit="10"/>
<path d="M20.9219 227.281H64.0305" stroke="#263238" stroke-width="0.762571" stroke-miterlimit="10"/>
<path d="M21.6782 222.529H76.1292" stroke="#263238" stroke-width="0.762571" stroke-miterlimit="10"/>
<path d="M353.624 354.222H279.727V359.768H353.624V354.222Z" fill="#263238" stroke="#263238" stroke-width="0.762571" stroke-linecap="round" stroke-linejoin="round"/>
<path d="M341.151 354.068H292.199L311.387 249.688H321.963L341.151 354.068Z" fill="#FF69B4" stroke="#263238" stroke-width="0.762571" stroke-linecap="round" stroke-linejoin="round"/>
<path d="M304.26 288.485H329.1L326.715 275.553H306.636L304.26 288.485Z" fill="white" stroke="#263238" stroke-width="0.762571" stroke-linecap="round" stroke-linejoin="round"/>
<path d="M333.794 336.643L335.021 343.779" stroke="#263238" stroke-width="0.762571" stroke-linecap="round" stroke-linejoin="round"/>
<path d="M319.817 255.455L332.252 327.667" stroke="#263238" stroke-width="0.762571" stroke-linecap="round" stroke-linejoin="round"/>
<path d="M393.38 359.757H400" stroke="#263238" stroke-width="0.762571" stroke-linecap="round" stroke-linejoin="round"/>
<path d="M0 359.757H384.136" stroke="#263238" stroke-width="0.762571" stroke-linecap="round" stroke-linejoin="round"/>
</g>
<defs>
<clipPath id="clip0_3670_1650">
<rect width="400" height="363.206" fill="white"/>
</clipPath>
</defs>
</svg>
