<svg width="400" height="377" viewBox="0 0 400 377" fill="none" xmlns="http://www.w3.org/2000/svg">
<g clip-path="url(#clip0_3670_1554)">
<path d="M7.94068 203.962C7.94068 203.962 10.2135 274.352 68.9761 321.263C127.739 368.174 209.142 371.539 275.055 375.997C340.968 380.455 391.595 343.133 399.223 286.731C406.851 230.329 356.487 213.775 329.164 149.57C301.841 85.364 304.27 64.2548 246.454 24.7676C188.638 -14.7196 98.1818 9.53066 50.7835 77.1798C3.38522 144.829 7.94068 203.962 7.94068 203.962Z" fill="#FF69B4"/>
<path opacity="0.7" d="M7.94068 203.962C7.94068 203.962 10.2135 274.352 68.9761 321.263C127.739 368.174 209.142 371.539 275.055 375.997C340.968 380.455 391.595 343.133 399.223 286.731C406.851 230.329 356.487 213.775 329.164 149.57C301.841 85.364 304.27 64.2548 246.454 24.7676C188.638 -14.7196 98.1818 9.53066 50.7835 77.1798C3.38522 144.829 7.94068 203.962 7.94068 203.962Z" fill="white"/>
<path d="M385.985 218.233H0" stroke="#263238" stroke-width="0.700092" stroke-miterlimit="10"/>
<path d="M70.7998 105.741C70.7998 103.058 72.0387 101.088 74.8285 101.088C77.6184 101.088 78.906 103.039 78.906 105.741V115.164C78.906 117.847 77.6671 119.817 74.8285 119.817C71.9899 119.817 70.7998 117.866 70.7998 115.164V105.741ZM72.0094 115.242C72.0094 117.193 72.7995 118.715 74.8285 118.715C76.8575 118.715 77.6964 117.242 77.6964 115.242V105.663C77.6964 103.712 76.877 102.19 74.8285 102.19C72.78 102.19 72.0094 103.663 72.0094 105.663V115.242Z" fill="#263238"/>
<path d="M80.8271 105.741C80.8271 103.058 82.066 101.088 84.8461 101.088C87.6262 101.088 88.9236 103.039 88.9236 105.741V115.164C88.9236 117.847 87.6945 119.817 84.8461 119.817C81.9977 119.817 80.8271 117.866 80.8271 115.164V105.741ZM82.0367 115.242C82.0367 117.193 82.8269 118.715 84.8461 118.715C86.8653 118.715 87.714 117.242 87.714 115.242V105.663C87.714 103.712 86.9043 102.19 84.8461 102.19C82.7878 102.19 82.0367 103.663 82.0367 105.663V115.242Z" fill="#263238"/>
<path d="M94.7374 101.244C97.5858 101.244 98.6881 103.039 98.6881 105.721V107.721C98.6881 110.647 97.342 112.081 94.4253 112.081H92.1329V119.661H90.9233V101.244H94.7374ZM94.4253 110.998C96.5518 110.998 97.4785 110.023 97.4785 107.818V105.663C97.4785 103.663 96.7957 102.375 94.7374 102.375H92.1329V110.998H94.4253Z" fill="#263238"/>
<path d="M108.268 105.692V106.082H107.107V105.614C107.107 103.663 106.375 102.19 104.375 102.19C102.376 102.19 101.634 103.643 101.634 105.585C101.634 110.062 108.287 110.14 108.287 115.212C108.287 117.866 107.136 119.817 104.317 119.817C101.498 119.817 100.347 117.866 100.347 115.212V114.237H101.507V115.212C101.507 117.163 102.268 118.607 104.297 118.607C106.326 118.607 107.077 117.183 107.077 115.212C107.077 110.794 100.425 110.716 100.425 105.585C100.425 102.824 101.634 101.039 104.327 101.01C107.019 100.98 108.268 103.039 108.268 105.692Z" fill="#263238"/>
<path d="M111.262 117.348V119.66H110.082V117.348H111.262Z" fill="#263238"/>
<path d="M114.579 117.348V119.66H113.398V117.348H114.579Z" fill="#263238"/>
<path d="M117.866 117.348V119.66H116.686V117.348H117.866Z" fill="#263238"/>
<path d="M27.625 182.637L48.3538 133.619H60.7911V182.637H66.1757V192.996H60.7911V206.155H49.5927V192.996H27.625V182.637ZM49.5927 182.637V155.382L38.1016 182.637H49.5927Z" fill="#263238"/>
<path d="M70.4287 151.022C70.4287 139.424 76.5449 132.791 87.7336 132.791C98.9223 132.791 105.039 139.424 105.039 151.022V188.744C105.039 200.352 98.9223 206.985 87.7336 206.985C76.5449 206.985 70.4287 200.352 70.4287 188.744V151.022ZM81.8223 189.475C81.8223 194.655 84.1049 196.626 87.7336 196.626C91.3624 196.626 93.645 194.675 93.645 189.475V150.3C93.645 145.121 91.3624 143.15 87.7336 143.15C84.1049 143.15 81.8223 145.101 81.8223 150.3V189.475Z" fill="#263238"/>
<path d="M109.701 182.637L130.43 133.619H142.867V182.637H148.252V192.996H142.867V206.155H131.669V192.996H109.701V182.637ZM131.669 182.637V155.382L120.168 182.637H131.669Z" fill="#263238"/>
<path d="M32.6199 223.578C35.4097 223.578 36.5217 225.333 36.5217 227.958V229.908C36.5217 232.767 35.2049 234.191 32.3467 234.191H30.1031V241.604H28.8838V223.578H32.6199ZM32.3175 233.118C34.405 233.118 35.3024 232.142 35.3024 229.996V227.879C35.3024 225.929 34.6391 224.66 32.6199 224.66H30.0739V233.118H32.3175Z" fill="#263238"/>
<path d="M39.6623 237.586L38.7551 241.576H37.6821L41.584 223.51H43.3106L47.3296 241.576H46.1785L45.2811 237.586H39.6623ZM39.8379 236.552H45.0957L42.4424 224.846L39.8379 236.552Z" fill="#263238"/>
<path d="M56.8599 227.987V229.323H55.7186V227.909C55.7186 225.958 54.9773 224.504 52.9873 224.504C50.9973 224.504 50.256 225.977 50.256 227.909V237.293C50.256 239.244 51.0071 240.668 52.9873 240.668C54.9675 240.668 55.7186 239.224 55.7186 237.293V233.391H53.3287V232.318H56.8599V237.195C56.8599 239.8 55.7186 241.751 52.958 241.751C50.1975 241.751 49.0562 239.8 49.0562 237.195V227.967C49.0562 225.363 50.1877 223.402 52.958 223.402C55.7284 223.402 56.8599 225.382 56.8599 227.987Z" fill="#263238"/>
<path d="M64.9468 231.928V233.01H60.0695V240.512H65.9906V241.585H58.8794V223.578H65.9906V224.66H60.0695V231.928H64.9468Z" fill="#263238"/>
<path d="M72.9651 241.614H71.8823V223.578H73.4333L78.8472 238.805V223.578H79.93V241.614H78.6131L72.9651 225.538V241.614Z" fill="#263238"/>
<path d="M81.8906 227.987C81.8906 225.353 83.1002 223.421 85.7925 223.421C88.4848 223.421 89.7822 225.372 89.7822 227.987V237.215C89.7822 239.839 88.5726 241.77 85.7925 241.77C83.0124 241.77 81.8906 239.819 81.8906 237.215V227.987ZM83.071 237.293C83.071 239.244 83.8416 240.687 85.8315 240.687C87.8215 240.687 88.6409 239.244 88.6409 237.293V227.909C88.6409 225.958 87.841 224.504 85.8315 224.504C83.8221 224.504 83.071 225.948 83.071 227.909V237.293Z" fill="#263238"/>
<path d="M94.8255 241.614V224.66H91.1675V223.578H99.6931V224.66H96.0156V241.614H94.8255Z" fill="#263238"/>
<path d="M111.018 232.367V233.449H106.385V241.614H105.205V223.578H112.033V224.66H106.385V232.367H111.018Z" fill="#263238"/>
<path d="M113.75 227.987C113.75 225.353 114.96 223.421 117.652 223.421C120.344 223.421 121.651 225.372 121.651 227.987V237.215C121.651 239.839 120.432 241.77 117.652 241.77C114.872 241.77 113.75 239.819 113.75 237.215V227.987ZM114.93 237.293C114.93 239.244 115.711 240.687 117.691 240.687C119.671 240.687 120.5 239.244 120.5 237.293V227.909C120.5 225.958 119.7 224.504 117.691 224.504C115.681 224.504 114.93 225.948 114.93 227.909V237.293Z" fill="#263238"/>
<path d="M124.782 237.264C124.782 239.215 125.504 240.688 127.484 240.688C129.465 240.688 130.196 239.196 130.196 237.264V223.607H131.298V237.264C131.298 239.839 130.216 241.82 127.465 241.82C124.714 241.82 123.563 239.869 123.563 237.264V223.607H124.753L124.782 237.264Z" fill="#263238"/>
<path d="M134.42 241.614H133.337V223.578H134.888L140.302 238.805V223.578H141.385V241.614H140.068L134.42 225.538V241.614Z" fill="#263238"/>
<path d="M147.355 223.578C150.145 223.578 151.354 225.412 151.354 228.065V237.137C151.354 239.79 150.145 241.614 147.355 241.614H143.453V223.578H147.355ZM147.355 240.512C149.364 240.512 150.184 239.136 150.184 237.156V227.977C150.184 226.026 149.335 224.631 147.355 224.631H144.594V240.512H147.355Z" fill="#263238"/>
<path d="M363.578 22.1433C363.578 22.1433 363.578 17.3244 356.838 10.5937C350.097 3.86288 345.766 0 345.766 0C345.766 0 342.401 11.0716 348.693 17.8122C353.288 22.5406 358.267 26.8801 363.578 30.786V22.1433Z" fill="#FF69B4"/>
<path d="M353.795 52.2463C353.795 52.2463 353.795 47.4275 347.064 40.6967C340.333 33.9659 335.992 30.103 335.992 30.103C335.992 30.103 332.627 41.1747 338.919 47.9152C343.521 52.6533 348.51 56.9995 353.834 60.9085L353.795 52.2463Z" fill="#FF69B4"/>
<path d="M363.149 30.3369C363.149 30.3369 363.666 25.5473 371.07 19.5579C378.474 13.5685 383.195 10.2031 383.195 10.2031C383.195 10.2031 385.37 21.5674 378.444 27.6056C373.368 31.8313 367.949 35.626 362.242 38.9504L363.149 30.3369Z" fill="#FF69B4"/>
<path d="M351.337 65.8355C351.337 65.8355 352.312 61.1239 360.35 55.9442C368.388 50.7644 373.392 47.916 373.392 47.916C373.392 47.916 374.368 59.4461 366.837 64.7234C361.343 68.3942 355.551 71.5985 349.522 74.3026L351.337 65.8355Z" fill="#FF69B4"/>
<path d="M353.561 104.532C353.561 104.532 353.56 99.7131 360.301 92.9823C367.042 86.2516 371.363 82.3887 371.363 82.3887C371.363 82.3887 374.738 93.4603 368.436 100.201C363.835 104.939 358.846 109.285 353.521 113.194L353.561 104.532Z" fill="#FF69B4"/>
<path d="M353.454 113.975C353.454 113.975 354.136 109.215 348.42 101.587C342.704 93.9584 338.968 89.5298 338.968 89.5298C338.968 89.5298 334.09 100.006 339.299 107.566C343.177 112.911 347.494 117.923 352.205 122.55L353.454 113.975Z" fill="#FF69B4"/>
<path d="M346.81 141.99C346.81 141.99 346.81 137.181 353.541 130.44C360.272 123.7 364.612 119.847 364.612 119.847C364.612 119.847 367.978 130.918 361.686 137.659C357.087 142.4 352.098 146.746 346.771 150.652L346.81 141.99Z" fill="#FF69B4"/>
<path d="M351.307 167.352C351.307 167.352 350.088 162.69 354.897 154.466C359.706 146.243 362.935 141.424 362.935 141.424C362.935 141.424 368.993 151.277 364.652 159.383C361.398 165.131 357.671 170.6 353.512 175.732L351.307 167.352Z" fill="#FF69B4"/>
<path d="M364.183 20.9043C363.845 25.9159 363.23 30.905 362.34 35.8486C359.677 49.6125 353.024 58.4893 350.361 70.9169C347.698 83.3444 355.336 99.3519 353.287 115.32C351.239 131.289 345.035 140.156 346.81 150.818C348.586 161.48 357.901 190.315 357.901 190.315" stroke="#263238" stroke-width="0.700092" stroke-linecap="round" stroke-linejoin="round"/>
<path d="M363.091 33.5368L370.348 27.9668" stroke="#263238" stroke-width="0.700092" stroke-linecap="round" stroke-linejoin="round"/>
<path d="M363.422 27.118L360.389 21.7139" stroke="#263238" stroke-width="0.700092" stroke-linecap="round" stroke-linejoin="round"/>
<path d="M350.761 70.3414C350.761 70.3414 356.838 65.7859 363.091 61.2305" stroke="#263238" stroke-width="0.700092" stroke-linecap="round" stroke-linejoin="round"/>
<path d="M353.795 60.86C353.795 60.86 348.732 50.9297 342.996 44.3452" stroke="#263238" stroke-width="0.700092" stroke-linecap="round" stroke-linejoin="round"/>
<path d="M353.804 111.38C357.282 104.981 361.672 99.1224 366.837 93.9873" stroke="#263238" stroke-width="0.700092" stroke-linecap="round" stroke-linejoin="round"/>
<path d="M352.614 118.13C350.771 113.789 348.569 109.609 346.03 105.635C342.489 100.396 341.981 99.7231 341.981 99.7231" stroke="#263238" stroke-width="0.700092" stroke-linecap="round" stroke-linejoin="round"/>
<path d="M346.811 150.819C348.347 146.993 350.177 143.291 352.283 139.747C354.385 136.46 356.757 133.354 359.375 130.46" stroke="#263238" stroke-width="0.700092" stroke-linecap="round" stroke-linejoin="round"/>
<path d="M353.502 175.731C353.15 172.079 353.776 168.399 355.317 165.069C357.853 160.192 360.721 153.754 361.901 151.227" stroke="#263238" stroke-width="0.700092" stroke-linecap="round" stroke-linejoin="round"/>
<path d="M319.458 86.3872C319.458 86.3872 318.931 83.373 322.433 78.4176C325.935 73.4622 328.218 70.6138 328.218 70.6138C328.218 70.6138 331.534 77.1885 328.344 82.0951C325.974 85.5647 323.314 88.8279 320.394 91.8498L319.458 86.3872Z" fill="#FF69B4"/>
<path d="M328.851 104.22C328.851 104.22 328.325 101.196 331.827 96.2403C335.329 91.2849 337.611 88.4365 337.611 88.4365C337.611 88.4365 340.928 95.0112 337.738 99.9178C335.367 103.387 332.708 106.651 329.788 109.673L328.851 104.22Z" fill="#FF69B4"/>
<path d="M320.609 91.5289C320.609 91.5289 319.77 88.6024 314.473 85.6272C309.176 82.652 305.86 81.0718 305.86 81.0718C305.86 81.0718 305.723 88.4366 310.737 91.4703C314.379 93.5695 318.19 95.3609 322.131 96.8257L320.609 91.5289Z" fill="#FF69B4"/>
<path d="M331.876 112.501C331.876 112.501 330.735 109.663 325.155 107.283C319.575 104.902 316.103 103.664 316.103 103.664C316.103 103.664 316.746 110.999 322.033 113.487C325.879 115.19 329.86 116.57 333.934 117.613L331.876 112.501Z" fill="#FF69B4"/>
<path d="M334.646 137.005C334.646 137.005 334.119 133.991 329.164 130.498C324.208 127.006 321.077 125.055 321.077 125.055C321.077 125.055 320.16 132.361 324.813 135.912C328.204 138.379 331.793 140.562 335.543 142.438L334.646 137.005Z" fill="#FF69B4"/>
<path d="M335.777 142.966C335.777 142.966 334.802 140.039 337.582 134.654C340.362 129.27 342.206 126.07 342.206 126.07C342.206 126.07 346.42 132.109 343.952 137.415C342.101 141.189 339.937 144.801 337.484 148.214L335.777 142.966Z" fill="#FF69B4"/>
<path d="M344.235 167.265C344.235 167.265 344.586 164.221 349.337 160.436C354.087 156.652 357.141 154.583 357.141 154.583C357.141 154.583 358.467 161.831 354.019 165.636C350.768 168.298 347.3 170.684 343.65 172.766L344.235 167.265Z" fill="#FF69B4"/>
<path d="M342.986 159.754C342.986 159.754 342.46 156.74 337.504 153.238C332.549 149.736 329.418 147.804 329.418 147.804C329.418 147.804 328.501 155.11 333.154 158.661C336.544 161.128 340.133 163.311 343.884 165.187L342.986 159.754Z" fill="#FF69B4"/>
<path d="M342.918 176.131C342.918 176.131 343.172 173.077 339.27 168.444C335.368 163.81 332.822 161.128 332.822 161.128C332.822 161.128 330.081 167.956 333.69 172.58C336.362 175.831 339.298 178.856 342.469 181.623L342.918 176.131Z" fill="#FF69B4"/>
<path d="M318.94 85.7246C319.699 88.8297 320.627 91.8908 321.721 94.8941C324.881 103.234 330.022 108.073 333.046 115.584C336.07 123.095 333.046 133.962 336.021 143.746C338.996 153.53 343.903 158.378 343.942 165.294C343.981 172.21 341.269 191.281 341.269 191.281" stroke="#263238" stroke-width="0.700092" stroke-linecap="round" stroke-linejoin="round"/>
<path d="M320.999 93.5185L315.849 90.8164" stroke="#263238" stroke-width="0.700092" stroke-linecap="round" stroke-linejoin="round"/>
<path d="M320.092 89.5388L321.409 85.8223" stroke="#263238" stroke-width="0.700092" stroke-linecap="round" stroke-linejoin="round"/>
<path d="M332.695 115.271C332.695 115.271 328.393 113.067 323.974 110.892" stroke="#263238" stroke-width="0.700092" stroke-linecap="round" stroke-linejoin="round"/>
<path d="M329.769 109.643C331.037 105.633 332.714 101.762 334.773 98.0938" stroke="#263238" stroke-width="0.700092" stroke-linecap="round" stroke-linejoin="round"/>
<path d="M335.28 141.326C332.406 137.695 329.022 134.498 325.233 131.834" stroke="#263238" stroke-width="0.700092" stroke-linecap="round" stroke-linejoin="round"/>
<path d="M336.753 145.434C337.436 142.513 338.363 139.654 339.523 136.888C341.182 133.221 341.425 132.743 341.425 132.743" stroke="#263238" stroke-width="0.700092" stroke-linecap="round" stroke-linejoin="round"/>
<path d="M343.708 170.513C345.383 168.433 347.241 166.507 349.258 164.758C350.54 163.812 351.744 162.765 352.858 161.626" stroke="#263238" stroke-width="0.700092" stroke-linecap="round" stroke-linejoin="round"/>
<path d="M343.942 165.294C342.562 163.065 341.013 160.946 339.309 158.953C337.633 157.122 335.809 155.432 333.856 153.9" stroke="#263238" stroke-width="0.700092" stroke-linecap="round" stroke-linejoin="round"/>
<path d="M342.45 181.652C342.277 179.323 341.482 177.083 340.148 175.165C338.031 172.366 335.534 168.659 334.519 167.196" stroke="#263238" stroke-width="0.700092" stroke-linecap="round" stroke-linejoin="round"/>
<path d="M364.379 224.124H334.715C333.973 224.122 333.262 223.826 332.738 223.301C332.213 222.777 331.918 222.066 331.915 221.325L327.506 187.944H371.578L367.178 221.325C367.176 222.066 366.88 222.777 366.356 223.301C365.831 223.826 365.121 224.122 364.379 224.124Z" fill="#263238"/>
<path d="M371.197 193.691H327.506C326.593 193.691 325.717 193.328 325.071 192.682C324.425 192.036 324.063 191.16 324.063 190.247C324.061 189.794 324.149 189.345 324.322 188.926C324.494 188.507 324.748 188.127 325.068 187.806C325.387 187.485 325.768 187.231 326.186 187.057C326.604 186.883 327.053 186.794 327.506 186.794H371.197C371.651 186.794 372.1 186.883 372.519 187.057C372.938 187.23 373.319 187.485 373.639 187.805C373.96 188.126 374.214 188.507 374.388 188.926C374.561 189.345 374.651 189.794 374.651 190.247C374.648 191.161 374.283 192.037 373.636 192.683C372.988 193.328 372.112 193.691 371.197 193.691Z" fill="#263238"/>
<path d="M329.105 263.231C328.325 263.233 327.557 263.036 326.874 262.658C326.191 262.28 325.615 261.735 325.201 261.073C324.787 260.411 324.549 259.655 324.508 258.875C324.468 258.096 324.626 257.319 324.969 256.618C325.859 254.837 326.034 252.783 325.459 250.877C324.884 248.972 323.603 247.358 321.877 246.365C314.99 241.956 298.973 241.254 293.364 241.342H293.286C292.065 241.353 290.889 240.879 290.017 240.024C289.146 239.169 288.65 238.002 288.638 236.781C288.626 235.56 289.1 234.385 289.955 233.513C290.811 232.641 291.977 232.145 293.198 232.133C295.549 232.084 316.376 231.919 326.833 238.61C337.143 245.214 335.544 255.886 333.251 260.617C332.876 261.398 332.287 262.058 331.554 262.52C330.821 262.983 329.972 263.229 329.105 263.231Z" fill="#263238"/>
<path d="M350.332 287.521L349.317 290.964L333.954 265.699L333.554 260.247L350.332 287.521Z" fill="white" stroke="#263238" stroke-width="0.700092" stroke-linecap="round" stroke-linejoin="round"/>
<path d="M349.317 290.964L354.117 288.593L354.975 285.306L350.332 287.52L349.317 290.964Z" fill="white" stroke="#263238" stroke-width="0.700092" stroke-linecap="round" stroke-linejoin="round"/>
<path d="M331.534 257.418L349.317 256.803L354.975 285.307L350.332 287.521L331.534 257.418Z" fill="white" stroke="#263238" stroke-width="0.700092" stroke-linecap="round" stroke-linejoin="round"/>
<path d="M329.106 258.627L346.888 288.535L341.036 291.364L314.756 269.942L329.106 258.627Z" fill="white" stroke="#263238" stroke-width="0.700092" stroke-linecap="round" stroke-linejoin="round"/>
<path d="M341.035 291.364L340.226 294.398L313.751 273.376L314.756 269.942L341.035 291.364Z" fill="white" stroke="#263238" stroke-width="0.700092" stroke-linecap="round" stroke-linejoin="round"/>
<path d="M341.036 291.364L346.889 288.535L346.089 291.569L340.226 294.398L341.036 291.364Z" fill="white" stroke="#263238" stroke-width="0.700092" stroke-linecap="round" stroke-linejoin="round"/>
<path d="M338.971 269.413C342.491 265.894 342.491 260.187 338.971 256.667C335.451 253.147 329.744 253.147 326.224 256.667C322.705 260.187 322.705 265.894 326.224 269.413C329.744 272.933 335.451 272.933 338.971 269.413Z" fill="#FF69B4" stroke="#263238" stroke-width="0.700092" stroke-linecap="round" stroke-linejoin="round"/>
<path d="M142.644 287.521L143.659 290.964L159.013 265.699L159.422 260.247L142.644 287.521Z" fill="white" stroke="#263238" stroke-width="0.700092" stroke-linecap="round" stroke-linejoin="round"/>
<path d="M143.658 290.964L138.859 288.593L138 285.306L142.644 287.52L143.658 290.964Z" fill="white" stroke="#263238" stroke-width="0.700092" stroke-linecap="round" stroke-linejoin="round"/>
<path d="M161.441 257.418L143.658 256.803L138 285.307L142.644 287.521L161.441 257.418Z" fill="white" stroke="#263238" stroke-width="0.700092" stroke-linecap="round" stroke-linejoin="round"/>
<path d="M163.87 258.627L146.078 288.535L151.94 291.364L178.21 269.942L163.87 258.627Z" fill="white" stroke="#263238" stroke-width="0.700092" stroke-linecap="round" stroke-linejoin="round"/>
<path d="M151.94 291.364L152.75 294.398L179.224 273.376L178.209 269.942L151.94 291.364Z" fill="white" stroke="#263238" stroke-width="0.700092" stroke-linecap="round" stroke-linejoin="round"/>
<path d="M151.94 291.364L146.078 288.535L146.887 291.569L152.75 294.398L151.94 291.364Z" fill="white" stroke="#263238" stroke-width="0.700092" stroke-linecap="round" stroke-linejoin="round"/>
<path d="M160.953 266.294C160.001 266.298 159.071 266.007 158.291 265.46C157.512 264.913 156.92 264.138 156.599 263.242C156.279 262.345 156.243 261.371 156.499 260.454C156.755 259.536 157.289 258.721 158.027 258.12C194.627 228.338 187.174 183.925 187.096 183.476C186.914 182.289 187.203 181.077 187.902 180.1C188.601 179.122 189.655 178.457 190.837 178.246C192.02 178.034 193.239 178.294 194.233 178.968C195.227 179.643 195.918 180.68 196.158 181.857C196.519 183.896 204.606 232.094 163.841 265.26C163.026 265.926 162.006 266.291 160.953 266.294Z" fill="#263238"/>
<path d="M214.421 173.666C216.007 163.837 209.326 154.583 199.497 152.996C189.668 151.41 180.415 158.091 178.828 167.92C177.241 177.749 183.923 187.003 193.751 188.589C203.58 190.176 212.834 183.494 214.421 173.666Z" fill="#ADADAD" stroke="#263238" stroke-width="0.700092" stroke-linecap="round" stroke-linejoin="round"/>
<path d="M166.745 269.41C170.265 265.89 170.265 260.183 166.745 256.663C163.225 253.143 157.518 253.143 153.998 256.663C150.478 260.183 150.478 265.89 153.998 269.41C157.518 272.93 163.225 272.93 166.745 269.41Z" fill="#FF69B4" stroke="#263238" stroke-width="0.700092" stroke-linecap="round" stroke-linejoin="round"/>
<path d="M244.893 245.029C260.695 245.029 273.504 233.08 273.504 218.34C273.504 203.6 260.695 191.651 244.893 191.651C229.092 191.651 216.283 203.6 216.283 218.34C216.283 233.08 229.092 245.029 244.893 245.029Z" fill="#ADADAD" stroke="#263238" stroke-width="0.700092" stroke-linecap="round" stroke-linejoin="round"/>
<path d="M229.987 206.936L232.66 217.364C233.45 219.944 235.124 222.164 237.388 223.632C239.652 225.101 242.361 225.724 245.039 225.392C247.714 225.058 250.185 223.791 252.017 221.814C253.85 219.837 254.926 217.276 255.057 214.584L255.584 204.068L229.987 206.936Z" fill="#263238" stroke="#263238" stroke-width="0.700092" stroke-linecap="round" stroke-linejoin="round"/>
<path d="M286.39 154.466C283.69 154.505 281 154.137 278.41 153.373L279.151 151.198C279.278 151.198 292.086 155.363 305.128 145.823L306.484 147.686C300.69 152.05 293.643 154.428 286.39 154.466Z" fill="#263238"/>
<path d="M300.768 171.771C290.214 156.349 278.206 157.51 278.089 157.52L277.835 155.237C278.381 155.179 291.345 153.92 302.661 170.474L300.768 171.771Z" fill="#263238"/>
<path d="M298.095 182.667C284.439 178.463 276.235 160.28 275.884 159.509L277.991 158.534C278.069 158.719 286.126 176.531 298.778 180.423L298.095 182.667Z" fill="#263238"/>
<path d="M305.197 147.374L308.884 144.916" stroke="#263238" stroke-width="0.700092" stroke-miterlimit="10"/>
<path d="M300.69 169.079L303.149 173.985" stroke="#263238" stroke-width="0.700092" stroke-miterlimit="10"/>
<path d="M296.388 180.745C298.332 181.239 300.324 181.514 302.329 181.565" stroke="#263238" stroke-width="0.700092" stroke-miterlimit="10"/>
<path d="M192.842 151.081L196.246 174.892L280.966 166.23L280.654 141.492L192.842 151.081Z" fill="white" stroke="#263238" stroke-width="0.700092" stroke-linecap="round" stroke-linejoin="round"/>
<path d="M196.246 174.893L211.395 213.229L276.635 206.732L280.966 166.23L196.246 174.893Z" fill="#E5E5E5" stroke="#263238" stroke-width="0.700092" stroke-linecap="round" stroke-linejoin="round"/>
<path d="M216.682 184.91L222.632 202.469C223.057 203.736 223.907 204.817 225.038 205.528C226.169 206.239 227.511 206.537 228.836 206.371L254.969 203.523C256.289 203.362 257.512 202.753 258.436 201.798C259.359 200.842 259.926 199.598 260.042 198.274L261.661 179.809C261.716 179.204 261.635 178.595 261.425 178.025C261.215 177.456 260.88 176.94 260.446 176.516C260.011 176.092 259.488 175.77 258.914 175.574C258.339 175.377 257.728 175.311 257.125 175.38L220.125 179.516C219.515 179.583 218.928 179.786 218.406 180.11C217.885 180.434 217.442 180.871 217.112 181.389C216.782 181.906 216.571 182.491 216.497 183.101C216.423 183.71 216.486 184.329 216.682 184.91Z" fill="#263238"/>
<path d="M216.682 194.558L227.471 193.602L230.895 184.306L238.952 198.792L243.049 187.993L245.098 191.417L264.646 189.086" stroke="white" stroke-width="0.700092" stroke-linecap="round" stroke-linejoin="round"/>
<path d="M216.682 184.91L222.632 202.469C223.057 203.736 223.907 204.817 225.038 205.528C226.169 206.239 227.511 206.537 228.836 206.371L254.969 203.523C256.289 203.362 257.512 202.753 258.436 201.798C259.359 200.842 259.926 199.598 260.042 198.274L261.661 179.809C261.716 179.204 261.635 178.595 261.425 178.025C261.215 177.456 260.88 176.94 260.446 176.516C260.011 176.092 259.488 175.77 258.914 175.574C258.339 175.377 257.728 175.311 257.125 175.38L220.125 179.516C219.515 179.583 218.928 179.786 218.406 180.11C217.885 180.434 217.442 180.871 217.112 181.389C216.782 181.906 216.571 182.491 216.497 183.101C216.423 183.71 216.486 184.329 216.682 184.91V184.91Z" stroke="#263238" stroke-width="0.700092" stroke-linecap="round" stroke-linejoin="round"/>
<path d="M271.134 182.16C273.752 182.16 275.875 180.037 275.875 177.419C275.875 174.801 273.752 172.678 271.134 172.678C268.516 172.678 266.393 174.801 266.393 177.419C266.393 180.037 268.516 182.16 271.134 182.16Z" fill="white" stroke="#263238" stroke-width="0.700092" stroke-linecap="round" stroke-linejoin="round"/>
<path d="M274.996 192.246C274.996 193.126 274.736 193.986 274.247 194.717C273.758 195.449 273.063 196.019 272.25 196.356C271.438 196.692 270.543 196.78 269.68 196.609C268.818 196.437 268.025 196.013 267.403 195.391C266.781 194.769 266.357 193.977 266.186 193.114C266.014 192.251 266.102 191.357 266.439 190.544C266.775 189.731 267.345 189.036 268.077 188.547C268.808 188.059 269.669 187.798 270.548 187.798C271.728 187.798 272.859 188.266 273.694 189.101C274.528 189.935 274.996 191.066 274.996 192.246Z" fill="#FF69B4" stroke="#263238" stroke-width="0.700092" stroke-linecap="round" stroke-linejoin="round"/>
<path d="M213.414 182.57C213.685 183.468 213.683 184.425 213.409 185.322C213.136 186.218 212.602 187.014 211.877 187.607C211.151 188.201 210.266 188.566 209.333 188.656C208.4 188.747 207.461 188.559 206.634 188.115C205.808 187.672 205.132 186.994 204.691 186.167C204.25 185.34 204.065 184.4 204.158 183.467C204.251 182.535 204.618 181.65 205.213 180.926C205.809 180.202 206.606 179.671 207.503 179.4C208.099 179.218 208.726 179.156 209.346 179.217C209.966 179.278 210.568 179.461 211.118 179.756C211.667 180.051 212.153 180.451 212.547 180.934C212.941 181.417 213.236 181.973 213.414 182.57Z" fill="#FF69B4" stroke="#263238" stroke-width="0.700092" stroke-linecap="round" stroke-linejoin="round"/>
<path d="M216.32 200.745C217.658 198.685 217.072 195.93 215.012 194.592C212.952 193.254 210.197 193.84 208.859 195.9C207.521 197.96 208.106 200.715 210.167 202.053C212.227 203.391 214.982 202.805 216.32 200.745Z" fill="white" stroke="#263238" stroke-width="0.700092" stroke-linecap="round" stroke-linejoin="round"/>
<path d="M227.706 249.467C234.666 249.467 240.309 244.025 240.309 237.313C240.309 230.6 234.666 225.158 227.706 225.158C220.745 225.158 215.103 230.6 215.103 237.313C215.103 244.025 220.745 249.467 227.706 249.467Z" fill="#FF69B4" stroke="#263238" stroke-width="0.700092" stroke-linecap="round" stroke-linejoin="round"/>
<path d="M209.171 264.587L220.711 238.679C221.206 237.566 222.092 236.674 223.202 236.172C224.312 235.67 225.567 235.594 226.729 235.957C227.929 236.325 228.944 237.133 229.572 238.219C230.2 239.304 230.394 240.587 230.114 241.81L222.515 275.874L209.171 264.587Z" fill="#263238" stroke="#263238" stroke-width="0.700092" stroke-linecap="round" stroke-linejoin="round"/>
<path d="M205.318 224.905L230.515 284.204L200.275 288.359C200.275 288.359 182.19 269.972 170.035 234.991L205.318 224.905Z" fill="#ADADAD" stroke="#263238" stroke-width="0.700092" stroke-linecap="round" stroke-linejoin="round"/>
<path d="M205.318 224.856L206.499 219.228L231.705 279.707L230.515 284.155L205.318 224.856Z" fill="white" stroke="#263238" stroke-width="0.700092" stroke-linecap="round" stroke-linejoin="round"/>
<path d="M206.498 219.228L172.113 229.597L170.035 234.942L205.318 224.856L206.498 219.228Z" fill="white" stroke="#263238" stroke-width="0.700092" stroke-linecap="round" stroke-linejoin="round"/>
<path d="M172.405 240.571L207.093 229.899" stroke="#263238" stroke-width="0.700092" stroke-linecap="round" stroke-linejoin="round"/>
<path d="M175.068 246.795L210.059 237.313" stroke="#263238" stroke-width="0.700092" stroke-linecap="round" stroke-linejoin="round"/>
<path d="M177.741 253.32L213.024 243.839" stroke="#263238" stroke-width="0.700092" stroke-linecap="round" stroke-linejoin="round"/>
<path d="M181.594 261.329L215.989 251.243" stroke="#263238" stroke-width="0.700092" stroke-linecap="round" stroke-linejoin="round"/>
<path d="M185.243 267.689L219.55 258.656" stroke="#263238" stroke-width="0.700092" stroke-linecap="round" stroke-linejoin="round"/>
<path d="M189.008 273.504L222.516 265.476" stroke="#263238" stroke-width="0.700092" stroke-linecap="round" stroke-linejoin="round"/>
<path d="M193.349 279.093L224.584 271.709" stroke="#263238" stroke-width="0.700092" stroke-linecap="round" stroke-linejoin="round"/>
<path d="M196.422 283.657L227.452 278.526" stroke="#263238" stroke-width="0.700092" stroke-linecap="round" stroke-linejoin="round"/>
<path d="M261.271 249.467C268.232 249.467 273.874 244.025 273.874 237.313C273.874 230.6 268.232 225.158 261.271 225.158C254.311 225.158 248.668 230.6 248.668 237.313C248.668 244.025 254.311 249.467 261.271 249.467Z" fill="#FF69B4" stroke="#263238" stroke-width="0.700092" stroke-linecap="round" stroke-linejoin="round"/>
<path d="M279.796 264.587L268.256 238.679C267.761 237.566 266.874 236.674 265.765 236.172C264.655 235.67 263.4 235.594 262.237 235.957C261.039 236.325 260.024 237.133 259.397 238.219C258.771 239.305 258.58 240.588 258.862 241.81L266.461 275.874L279.796 264.587Z" fill="#263238" stroke="#263238" stroke-width="0.700092" stroke-linecap="round" stroke-linejoin="round"/>
<path d="M283.658 224.905L258.452 284.204L288.692 288.359C288.692 288.359 306.777 269.972 318.932 234.991L283.658 224.905Z" fill="#ADADAD" stroke="#263238" stroke-width="0.700092" stroke-linecap="round" stroke-linejoin="round"/>
<path d="M283.658 224.856L282.468 219.228L257.262 279.707L258.452 284.155L283.658 224.856Z" fill="white" stroke="#263238" stroke-width="0.700092" stroke-linecap="round" stroke-linejoin="round"/>
<path d="M282.468 219.228L316.863 229.597L318.941 234.942L283.658 224.856L282.468 219.228Z" fill="white" stroke="#263238" stroke-width="0.700092" stroke-linecap="round" stroke-linejoin="round"/>
<path d="M316.561 240.571L281.874 229.899" stroke="#263238" stroke-width="0.700092" stroke-linecap="round" stroke-linejoin="round"/>
<path d="M313.898 246.795L278.908 237.313" stroke="#263238" stroke-width="0.700092" stroke-linecap="round" stroke-linejoin="round"/>
<path d="M311.225 253.32L275.942 243.839" stroke="#263238" stroke-width="0.700092" stroke-linecap="round" stroke-linejoin="round"/>
<path d="M307.372 261.329L272.977 251.243" stroke="#263238" stroke-width="0.700092" stroke-linecap="round" stroke-linejoin="round"/>
<path d="M303.724 267.689L269.426 258.656" stroke="#263238" stroke-width="0.700092" stroke-linecap="round" stroke-linejoin="round"/>
<path d="M299.958 273.504L266.46 265.476" stroke="#263238" stroke-width="0.700092" stroke-linecap="round" stroke-linejoin="round"/>
<path d="M295.628 279.093L264.383 271.709" stroke="#263238" stroke-width="0.700092" stroke-linecap="round" stroke-linejoin="round"/>
<path d="M292.545 283.657L261.515 278.526" stroke="#263238" stroke-width="0.700092" stroke-linecap="round" stroke-linejoin="round"/>
<path d="M306.631 174.19L309.908 175.624" stroke="#263238" stroke-width="0.700092" stroke-miterlimit="10"/>
<path d="M304.583 175.419L307.86 180.54" stroke="#263238" stroke-width="0.700092" stroke-miterlimit="10"/>
<path d="M302.739 175.624L302.124 178.902" stroke="#263238" stroke-width="0.700092" stroke-miterlimit="10"/>
<path d="M310.728 154.329H318.707" stroke="#263238" stroke-width="0.700092" stroke-miterlimit="10"/>
<path d="M304.583 154.739L316.044 158.017" stroke="#263238" stroke-width="0.700092" stroke-miterlimit="10"/>
<path d="M308.884 150.447L316.249 149.422" stroke="#263238" stroke-width="0.700092" stroke-miterlimit="10"/>
<path d="M282.468 175.829L284.517 181.77" stroke="#263238" stroke-width="0.700092" stroke-miterlimit="10"/>
<path d="M285.132 175.419L290.858 184.842" stroke="#263238" stroke-width="0.700092" stroke-miterlimit="10"/>
<path d="M287.18 169.898L292.701 171.742" stroke="#263238" stroke-width="0.700092" stroke-miterlimit="10"/>
<path d="M317.683 166.825L315.839 168.835L317.176 171.215L314.688 170.073L312.845 172.083L313.157 169.371L310.679 168.23L313.352 167.693L313.674 164.981L315.01 167.362L317.683 166.825Z" fill="#FF69B4" stroke="#263238" stroke-width="0.350046" stroke-linecap="round" stroke-linejoin="round"/>
<path d="M320.551 139.794L318.697 141.804L320.044 144.184L317.556 143.043L315.712 145.052L316.025 142.34L313.547 141.199L316.22 140.663L316.532 137.951L317.878 140.331L320.551 139.794Z" fill="#FF69B4" stroke="#263238" stroke-width="0.350046" stroke-linecap="round" stroke-linejoin="round"/>
<path d="M290.652 187.096L288.809 189.105L290.145 191.485L287.667 190.344L285.814 192.353L286.126 189.642L283.648 188.5L286.321 187.964L286.643 185.252L287.98 187.632L290.652 187.096Z" fill="#FF69B4" stroke="#263238" stroke-width="0.350046" stroke-linecap="round" stroke-linejoin="round"/>
<path d="M202.275 142.429C209.876 142.429 216.039 136.337 216.039 128.821C216.039 121.306 209.876 115.213 202.275 115.213C194.673 115.213 188.511 121.306 188.511 128.821C188.511 136.337 194.673 142.429 202.275 142.429Z" fill="#ADADAD" stroke="#263238" stroke-width="0.700092" stroke-linecap="round" stroke-linejoin="round"/>
<path d="M262.256 138.712C269.858 138.712 276.02 132.62 276.02 125.104C276.02 117.589 269.858 111.497 262.256 111.497C254.655 111.497 248.492 117.589 248.492 125.104C248.492 132.62 254.655 138.712 262.256 138.712Z" fill="#ADADAD" stroke="#263238" stroke-width="0.700092" stroke-linecap="round" stroke-linejoin="round"/>
<path d="M234.582 170.249C244.145 170.249 251.897 162.842 251.897 153.705C251.897 144.568 244.145 137.161 234.582 137.161C225.02 137.161 217.268 144.568 217.268 153.705C217.268 162.842 225.02 170.249 234.582 170.249Z" fill="#FF69B4" stroke="#263238" stroke-width="0.700092" stroke-linecap="round" stroke-linejoin="round"/>
<path d="M221.911 145.209L224.301 155.705C225.015 158.306 226.625 160.572 228.847 162.101C231.069 163.631 233.76 164.326 236.445 164.064C239.129 163.804 241.634 162.606 243.522 160.681C245.41 158.756 246.558 156.227 246.766 153.539L247.575 143.043L221.911 145.209Z" fill="#263238" stroke="#263238" stroke-width="0.700092" stroke-linecap="round" stroke-linejoin="round"/>
<path d="M206.137 100.991L199.65 126.968L264.266 121.71L254.687 96.9722L206.137 100.991Z" fill="white" stroke="#263238" stroke-width="0.700092" stroke-linecap="round" stroke-linejoin="round"/>
<path d="M199.65 126.968L211.083 155.413L261.798 150.467L264.266 121.71L199.65 126.968Z" fill="#E5E5E5" stroke="#263238" stroke-width="0.700092" stroke-linecap="round" stroke-linejoin="round"/>
<path d="M228.71 138.566C228.534 142.604 225.003 145.784 220.779 146.106C216.556 146.428 212.42 143.784 211.512 139.785C210.537 135.2 213.961 130.694 219.375 130.352C224.789 130.011 228.895 133.961 228.71 138.566Z" fill="#FF69B4" stroke="#263238" stroke-width="0.700092" stroke-linecap="round" stroke-linejoin="round"/>
<path d="M225.481 138.79C225.428 140.067 224.897 141.277 223.994 142.18C223.09 143.084 221.88 143.615 220.603 143.667C219.307 143.807 218.005 143.466 216.944 142.709C215.883 141.952 215.137 140.832 214.848 139.561C214.37 136.79 216.545 134.186 219.725 133.971C220.423 133.893 221.129 133.957 221.8 134.16C222.472 134.362 223.096 134.699 223.634 135.15C224.172 135.6 224.613 136.155 224.93 136.781C225.248 137.406 225.435 138.09 225.481 138.79Z" fill="white" stroke="#263238" stroke-width="0.700092" stroke-linecap="round" stroke-linejoin="round"/>
<path d="M257.457 135.785C257.291 139.824 253.76 143.004 249.536 143.326C245.312 143.648 241.167 141.004 240.269 136.995C239.245 132.42 242.718 127.913 248.132 127.562C253.545 127.211 257.652 131.181 257.457 135.785Z" fill="#FF69B4" stroke="#263238" stroke-width="0.700092" stroke-linecap="round" stroke-linejoin="round"/>
<path d="M254.229 136.01C254.178 137.288 253.648 138.499 252.744 139.403C251.84 140.307 250.629 140.837 249.351 140.888C248.054 141.025 246.752 140.682 245.691 139.923C244.631 139.165 243.885 138.043 243.596 136.771C243.118 134.001 245.293 131.406 248.473 131.192C249.171 131.111 249.878 131.173 250.551 131.374C251.224 131.576 251.849 131.912 252.387 132.363C252.926 132.814 253.367 133.37 253.684 133.997C254 134.624 254.186 135.309 254.229 136.01Z" fill="white" stroke="#263238" stroke-width="0.700092" stroke-linecap="round" stroke-linejoin="round"/>
<path d="M229.022 150.291C228.428 150.297 227.854 150.073 227.421 149.665C226.988 149.258 226.73 148.699 226.699 148.106C226.669 147.512 226.87 146.93 227.259 146.481C227.648 146.032 228.196 145.75 228.788 145.696L241.157 144.457C241.765 144.396 242.372 144.58 242.845 144.967C243.318 145.353 243.618 145.912 243.679 146.52C243.739 147.128 243.556 147.736 243.169 148.208C242.782 148.681 242.224 148.981 241.616 149.042L229.295 150.281L229.022 150.291Z" fill="#263238" stroke="#263238" stroke-width="0.700092" stroke-linecap="round" stroke-linejoin="round"/>
<path d="M207.327 113.769C209.908 113.769 212 111.677 212 109.097C212 106.516 209.908 104.424 207.327 104.424C204.747 104.424 202.655 106.516 202.655 109.097C202.655 111.677 204.747 113.769 207.327 113.769Z" fill="#FF69B4" stroke="#263238" stroke-width="0.700092" stroke-linecap="round" stroke-linejoin="round"/>
<path d="M204.44 110.365C206.644 110.365 208.43 108.578 208.43 106.375C208.43 104.172 206.644 102.385 204.44 102.385C202.237 102.385 200.451 104.172 200.451 106.375C200.451 108.578 202.237 110.365 204.44 110.365Z" fill="#FF69B4" stroke="#263238" stroke-width="0.700092" stroke-linecap="round" stroke-linejoin="round"/>
<path d="M203.67 102.132C203.668 102.753 203.482 103.359 203.136 103.875C202.789 104.39 202.298 104.791 201.724 105.027C201.15 105.263 200.519 105.324 199.91 105.202C199.301 105.08 198.743 104.78 198.304 104.34C197.866 103.9 197.568 103.341 197.447 102.732C197.327 102.123 197.39 101.492 197.628 100.918C197.866 100.345 198.268 99.8548 198.785 99.5101C199.301 99.1654 199.908 98.9814 200.529 98.9814C200.942 98.9814 201.351 99.063 201.733 99.2215C202.115 99.3799 202.461 99.6122 202.753 99.9049C203.045 100.198 203.276 100.545 203.433 100.927C203.591 101.309 203.671 101.719 203.67 102.132Z" fill="#FF69B4" stroke="#263238" stroke-width="0.700092" stroke-linecap="round" stroke-linejoin="round"/>
<path d="M199.767 101.03L192.627 94.3965" stroke="#263238" stroke-width="0.700092" stroke-linecap="round" stroke-linejoin="round"/>
<path d="M253.214 110.54C255.795 110.54 257.887 108.448 257.887 105.868C257.887 103.287 255.795 101.195 253.214 101.195C250.633 101.195 248.542 103.287 248.542 105.868C248.542 108.448 250.633 110.54 253.214 110.54Z" fill="#FF69B4" stroke="#263238" stroke-width="0.700092" stroke-linecap="round" stroke-linejoin="round"/>
<path d="M256.101 107.135C258.304 107.135 260.091 105.349 260.091 103.145C260.091 100.942 258.304 99.1558 256.101 99.1558C253.898 99.1558 252.111 100.942 252.111 103.145C252.111 105.349 253.898 107.135 256.101 107.135Z" fill="#FF69B4" stroke="#263238" stroke-width="0.700092" stroke-linecap="round" stroke-linejoin="round"/>
<path d="M256.872 98.9027C256.874 99.5235 257.059 100.13 257.406 100.645C257.752 101.16 258.243 101.561 258.817 101.798C259.391 102.034 260.023 102.095 260.631 101.972C261.24 101.85 261.799 101.55 262.237 101.111C262.675 100.671 262.974 100.111 263.094 99.5022C263.214 98.8931 263.152 98.2621 262.914 97.6887C262.676 97.1153 262.273 96.6253 261.757 96.2806C261.24 95.9359 260.633 95.752 260.013 95.752C259.599 95.752 259.19 95.8335 258.808 95.992C258.427 96.1504 258.08 96.3827 257.788 96.6754C257.496 96.9681 257.265 97.3155 257.108 97.6977C256.951 98.0799 256.87 98.4894 256.872 98.9027Z" fill="#FF69B4" stroke="#263238" stroke-width="0.700092" stroke-linecap="round" stroke-linejoin="round"/>
<path d="M260.774 97.791L267.914 91.1675" stroke="#263238" stroke-width="0.700092" stroke-linecap="round" stroke-linejoin="round"/>
<path d="M250.317 269.367C250.317 271.62 248.824 273.444 246.981 273.444C245.137 273.444 243.654 271.62 243.654 269.367C243.654 267.113 245.147 265.289 246.981 265.289C248.815 265.289 250.317 267.113 250.317 269.367Z" fill="white" stroke="#263238" stroke-width="0.700092" stroke-linecap="round" stroke-linejoin="round"/>
<path d="M256.911 272.781H256.657L247.4 271.425C246.962 271.343 246.573 271.094 246.314 270.732C246.055 270.369 245.946 269.92 246.011 269.48C246.075 269.039 246.307 268.64 246.659 268.366C247.01 268.092 247.454 267.965 247.897 268.011L257.154 269.357C257.603 269.401 258.016 269.617 258.307 269.961C258.598 270.305 258.743 270.749 258.711 271.198C258.679 271.647 258.473 272.066 258.137 272.365C257.8 272.665 257.36 272.821 256.911 272.801V272.781Z" fill="white" stroke="#263238" stroke-width="0.700092" stroke-miterlimit="10"/>
<path d="M127.533 288.428C126.324 286.526 126.558 284.185 128.158 283.21C129.758 282.234 131.943 282.966 133.152 284.858C134.362 286.751 134.079 289.101 132.518 290.087C130.957 291.072 128.733 290.331 127.533 288.428Z" fill="white" stroke="#263238" stroke-width="0.700092" stroke-linecap="round" stroke-linejoin="round"/>
<path d="M120.13 289.082C120.202 289.037 120.277 288.998 120.354 288.965L128.899 285.151C129.313 284.988 129.774 284.992 130.185 285.16C130.597 285.328 130.927 285.649 131.108 286.055C131.289 286.461 131.307 286.921 131.157 287.34C131.007 287.758 130.702 288.103 130.304 288.302L121.759 292.116C121.361 292.293 120.911 292.312 120.499 292.171C120.087 292.03 119.743 291.738 119.537 291.355C119.331 290.971 119.278 290.523 119.388 290.102C119.498 289.681 119.763 289.316 120.13 289.082Z" fill="white" stroke="#263238" stroke-width="0.700092" stroke-miterlimit="10"/>
<path d="M348.605 244.727C347.396 242.824 347.679 240.493 349.23 239.508C350.781 238.523 353.015 239.264 354.224 241.156C355.434 243.049 355.151 245.4 353.6 246.385C352.049 247.37 349.805 246.629 348.605 244.727Z" fill="white" stroke="#263238" stroke-width="0.700092" stroke-linecap="round" stroke-linejoin="round"/>
<path d="M341.211 245.39L341.426 245.273L349.971 241.459C350.18 241.354 350.407 241.293 350.64 241.279C350.873 241.265 351.106 241.298 351.326 241.377C351.545 241.455 351.747 241.578 351.918 241.736C352.089 241.895 352.226 242.086 352.321 242.299C352.416 242.512 352.467 242.743 352.471 242.976C352.474 243.209 352.43 243.441 352.342 243.656C352.254 243.872 352.123 244.068 351.957 244.232C351.791 244.396 351.593 244.524 351.376 244.609L342.841 248.423C342.442 248.6 341.992 248.62 341.58 248.479C341.168 248.337 340.825 248.046 340.619 247.662C340.413 247.278 340.36 246.831 340.469 246.41C340.579 245.988 340.844 245.624 341.211 245.39Z" fill="white" stroke="#263238" stroke-width="0.700092" stroke-miterlimit="10"/>
<path d="M183.623 290.262C179.722 290.262 176.581 292.135 176.581 294.437C176.581 296.739 179.731 298.612 183.623 298.612C187.516 298.612 190.676 296.739 190.676 294.437C190.676 292.135 187.516 290.262 183.623 290.262ZM183.623 296.593C181.614 296.593 179.985 295.618 179.985 294.437C179.985 293.257 181.614 292.281 183.623 292.281C185.633 292.281 187.272 293.257 187.272 294.437C187.272 295.618 185.643 296.593 183.623 296.593Z" fill="white" stroke="#263238" stroke-width="0.700092" stroke-miterlimit="10"/>
<path d="M247.108 290.935L242.298 288.984L237.48 290.935L236.29 295.227L239.626 298.671H244.971L248.298 295.227L247.108 290.935ZM243.654 296.417H240.943L239.245 294.671L239.85 292.496L242.298 291.521L244.737 292.496L245.342 294.671L243.654 296.417Z" fill="white" stroke="#263238" stroke-width="0.700092" stroke-linecap="round" stroke-linejoin="round"/>
<path d="M338.373 228.612L333.554 226.661L328.735 228.612L327.545 232.914L330.881 236.357H336.227L339.563 232.914L338.373 228.612ZM334.91 234.104H332.198L330.51 232.358L331.105 230.173L333.554 229.197L336.002 230.173L336.607 232.358L334.91 234.104Z" fill="white" stroke="#263238" stroke-width="0.700092" stroke-linecap="round" stroke-linejoin="round"/>
<path d="M279.308 300.728C279.171 300.728 279.036 300.705 278.908 300.66C278.253 300.383 277.7 299.909 277.328 299.304C276.791 298.475 276.352 297.002 277.201 294.719C277.498 293.884 277.996 293.135 278.651 292.538C279.306 291.941 280.098 291.514 280.956 291.295C282.058 291.029 283.207 291.021 284.312 291.274C285.417 291.526 286.449 292.031 287.326 292.749C287.444 292.844 287.541 292.962 287.613 293.095C287.684 293.229 287.729 293.375 287.743 293.526C287.758 293.676 287.742 293.828 287.697 293.973C287.653 294.118 287.579 294.252 287.482 294.368C287.288 294.603 287.008 294.752 286.705 294.781C286.401 294.81 286.098 294.718 285.863 294.524C285.264 294.047 284.566 293.711 283.819 293.542C283.072 293.373 282.297 293.375 281.551 293.549C281.048 293.679 280.584 293.931 280.201 294.283C279.818 294.635 279.528 295.077 279.357 295.568C278.488 297.86 279.532 298.494 279.747 298.553C280.021 298.675 280.238 298.898 280.352 299.176C280.467 299.454 280.47 299.765 280.361 300.045C280.273 300.25 280.125 300.425 279.938 300.546C279.75 300.668 279.531 300.731 279.308 300.728Z" fill="white" stroke="#263238" stroke-width="0.700092" stroke-linecap="round" stroke-linejoin="round"/>
<path d="M303.09 304.962C302.726 304.964 302.364 304.908 302.017 304.797L283.297 298.7C282.855 298.569 282.443 298.351 282.086 298.058C281.73 297.766 281.435 297.405 281.22 296.996C281.005 296.588 280.874 296.141 280.835 295.681C280.796 295.221 280.849 294.758 280.992 294.32C281.135 293.881 281.364 293.475 281.666 293.127C281.969 292.778 282.338 292.493 282.752 292.29C283.166 292.086 283.616 291.967 284.077 291.941C284.538 291.914 284.999 291.98 285.434 292.135L304.163 298.232C304.94 298.49 305.601 299.015 306.027 299.715C306.452 300.415 306.615 301.244 306.486 302.053C306.357 302.862 305.945 303.599 305.323 304.132C304.7 304.665 303.909 304.959 303.09 304.962Z" fill="white" stroke="#263238" stroke-width="0.700092" stroke-linecap="round" stroke-linejoin="round"/>
<path d="M282.731 298.543C282.731 298.543 283.473 293.783 289.423 293.666" stroke="#263238" stroke-width="0.700092" stroke-linecap="round" stroke-linejoin="round"/>
<path d="M286.741 299.578C286.741 299.578 287.492 294.827 293.433 294.7" stroke="#263238" stroke-width="0.700092" stroke-linecap="round" stroke-linejoin="round"/>
<path d="M290.311 300.914C290.311 300.914 291.052 296.163 296.993 296.037" stroke="#263238" stroke-width="0.700092" stroke-linecap="round" stroke-linejoin="round"/>
<path d="M294.027 301.968C294.027 301.968 294.769 297.217 300.709 297.09" stroke="#263238" stroke-width="0.700092" stroke-linecap="round" stroke-linejoin="round"/>
<path d="M297.745 303.294C297.745 303.294 298.486 298.544 304.427 298.417" stroke="#263238" stroke-width="0.700092" stroke-linecap="round" stroke-linejoin="round"/>
<path d="M303.08 304.894C302.946 304.891 302.814 304.865 302.69 304.816C302.031 304.546 301.475 304.075 301.1 303.47C300.563 302.64 300.125 301.168 300.973 298.875C301.273 298.042 301.772 297.295 302.427 296.698C303.081 296.101 303.871 295.673 304.729 295.451C305.831 295.186 306.98 295.18 308.086 295.434C309.191 295.688 310.222 296.195 311.099 296.914C311.216 297.01 311.314 297.128 311.385 297.261C311.457 297.394 311.501 297.541 311.516 297.691C311.53 297.842 311.515 297.994 311.47 298.139C311.425 298.283 311.352 298.418 311.255 298.534C311.06 298.769 310.781 298.918 310.477 298.947C310.174 298.976 309.871 298.884 309.635 298.69C309.037 298.212 308.338 297.876 307.592 297.707C306.845 297.538 306.069 297.54 305.324 297.714C304.82 297.841 304.356 298.091 303.972 298.442C303.589 298.792 303.299 299.233 303.129 299.724C302.261 302.026 303.305 302.65 303.519 302.709C303.761 302.815 303.96 303 304.083 303.234C304.205 303.469 304.244 303.738 304.193 303.997C304.142 304.256 304.004 304.491 303.801 304.661C303.599 304.831 303.344 304.927 303.08 304.933V304.894Z" fill="white" stroke="#263238" stroke-width="0.700092" stroke-linecap="round" stroke-linejoin="round"/>
</g>
<defs>
<clipPath id="clip0_3670_1554">
<rect width="400" height="376.357" fill="white"/>
</clipPath>
</defs>
</svg>
