<svg width="400" height="355" viewBox="0 0 400 355" fill="none" xmlns="http://www.w3.org/2000/svg">
<g clip-path="url(#clip0_3670_1772)">
<path d="M0.201227 196.351C0.201227 196.351 3.5118 264.19 60.801 307.728C118.09 351.265 196.489 352.12 259.981 354.494C323.473 356.868 371.594 319.387 378.034 264.754C384.473 210.12 335.751 195.632 308.43 134.478C281.109 73.3229 283.155 52.9138 226.848 16.5066C170.541 -19.9006 83.975 6.13835 39.4097 72.7863C-5.15571 139.434 0.201227 196.351 0.201227 196.351Z" fill="#FF69B4"/>
<path opacity="0.7" d="M0.201227 196.351C0.201227 196.351 3.5118 264.19 60.801 307.728C118.09 351.265 196.489 352.12 259.981 354.494C323.473 356.868 371.594 319.387 378.034 264.754C384.473 210.12 335.751 195.632 308.43 134.478C281.109 73.3229 283.155 52.9138 226.848 16.5066C170.541 -19.9006 83.975 6.13835 39.4097 72.7863C-5.15571 139.434 0.201227 196.351 0.201227 196.351Z" fill="white"/>
<path d="M347.484 292.084C347.484 292.084 344.391 278.942 346.711 267.337C349.03 255.732 354.441 263.472 360.635 255.732C366.829 247.992 363.727 233.304 370.685 227.11C377.643 220.916 387.702 221.698 390.021 210.093C392.34 198.488 393.895 189.175 398.534 190.757C403.172 192.34 394.668 206.219 394.668 214.741C394.668 223.263 399.307 228.656 396.215 237.169C393.122 245.682 379.971 242.581 379.971 252.63C379.971 262.68 385.382 272.739 380.744 279.706C376.106 286.673 363.727 288.21 362.181 292.075C360.635 295.941 356.724 302.907 352.895 302.907C349.066 302.907 347.484 292.084 347.484 292.084Z" fill="#BFBFBF"/>
<path d="M345.001 292.212C345.774 289.893 344.228 269.784 337.27 265.918C330.312 262.053 322.573 263.599 318.707 256.632C314.842 249.666 314.833 246.582 310.967 245.809C307.102 245.036 288.539 241.935 290.858 245.809C293.178 249.684 307.102 243.481 307.102 251.221C307.102 258.961 305.556 271.33 310.194 274.422C314.833 277.514 327.211 276.741 326.438 283.708C325.665 290.675 323.346 292.985 327.211 295.313C331.076 297.642 341.909 307.682 343.455 299.952L345.001 292.212Z" fill="#BFBFBF"/>
<path d="M353.577 309.283C353.577 309.283 349.939 298.014 359.88 277.296C369.821 256.577 376.997 240.816 381.499 232.73" stroke="#263238" stroke-width="0.615809" stroke-miterlimit="10"/>
<path d="M345.465 311.084C345.465 311.084 344.119 305.672 339.608 290.811C335.097 275.95 329.703 271.893 322.045 266.937C314.387 261.98 313.942 253.876 312.586 251.621" stroke="#263238" stroke-width="0.615809" stroke-miterlimit="10"/>
<path d="M364.382 302.971C364.382 302.971 365.292 294.867 372.495 292.612C379.698 290.356 386.456 291.265 387.811 286.309C389.166 281.352 389.157 276.395 392.313 273.694C395.469 270.993 399.516 269.638 399.971 270.965C400.426 272.293 395.423 273.221 395.423 277.723C395.423 282.225 402.181 293.485 392.277 297.987C382.372 302.489 374.259 298.441 370.658 301.625C367.056 304.808 364.801 307.027 364.801 307.027L364.382 302.971Z" fill="#BFBFBF"/>
<path d="M363.482 311.083C363.482 311.083 366.638 299.369 374.296 296.668C381.954 293.967 390.476 299.824 394.114 294.412C397.752 289.001 395.023 283.607 394.559 280.006" stroke="#263238" stroke-width="0.615809" stroke-miterlimit="10"/>
<path d="M368.548 309.283H340.626C340.33 309.282 340.037 309.339 339.764 309.452C339.49 309.564 339.241 309.729 339.032 309.938C338.822 310.147 338.656 310.395 338.542 310.668C338.429 310.941 338.371 311.234 338.371 311.53C338.371 312.128 338.608 312.702 339.031 313.125C339.454 313.548 340.028 313.785 340.626 313.785H340.854L343.027 319.488C343.197 319.929 343.496 320.309 343.886 320.577C344.275 320.845 344.737 320.989 345.21 320.988H363.973C364.446 320.987 364.907 320.843 365.296 320.576C365.686 320.308 365.985 319.929 366.156 319.488L368.329 313.785H368.548C369.146 313.785 369.72 313.548 370.143 313.125C370.566 312.702 370.803 312.128 370.803 311.53C370.803 311.234 370.745 310.941 370.631 310.668C370.518 310.395 370.352 310.147 370.142 309.938C369.933 309.729 369.684 309.564 369.41 309.452C369.137 309.339 368.844 309.282 368.548 309.283Z" fill="#263238"/>
<path d="M377.943 181.018H244.347C241.971 181.018 240.045 182.944 240.045 185.319V202.218C240.045 204.594 241.971 206.52 244.347 206.52H377.943C380.319 206.52 382.245 204.594 382.245 202.218V185.319C382.245 182.944 380.319 181.018 377.943 181.018Z" fill="#FF69B4"/>
<path d="M250.74 189.148V200.608H249.503V189.148H250.74Z" fill="#263238"/>
<path d="M253.515 200.608H252.369V189.148H253.988L256.634 197.433V189.148H257.771V200.608H256.443L253.515 191.34V200.608Z" fill="#263238"/>
<path d="M261.072 200.607V190.348H258.962V189.184H264.465V190.348H262.355V200.644L261.072 200.607Z" fill="#263238"/>
<path d="M269.749 194.223V195.369H266.948V199.443H270.422V200.608H265.711V189.148H270.422V190.348H266.984V194.259L269.749 194.223Z" fill="#263238"/>
<path d="M274.451 189.148C276.27 189.148 277.006 190.057 277.006 191.767V192.677C277.006 193.941 276.561 194.723 275.579 195.042C276.624 195.351 277.016 196.206 277.016 197.433V199.252C276.977 199.723 277.058 200.195 277.252 200.626H275.951C275.773 200.185 275.702 199.708 275.742 199.234V197.415C275.742 196.124 275.133 195.715 274.069 195.715H273.159V200.608H271.886V189.148H274.451ZM274.123 194.55C275.133 194.55 275.742 194.223 275.742 192.977V191.876C275.742 190.849 275.369 190.312 274.414 190.312H273.15V194.55H274.123Z" fill="#263238"/>
<path d="M279.799 200.608H278.653V189.148H280.271L282.927 197.433V189.148H284.064V200.608H282.745L279.808 191.34L279.799 200.608Z" fill="#263238"/>
<path d="M286.984 198.297L286.547 200.608H285.365L287.557 189.148H289.376L291.568 200.608H290.294L289.849 198.297H286.984ZM287.148 197.206H289.703L288.412 190.585L287.148 197.206Z" fill="#263238"/>
<path d="M292.932 200.608V189.148H294.205V199.443H297.479V200.608H292.932Z" fill="#263238"/>
<path d="M306.602 191.894V192.167H305.392V191.794C305.392 190.767 305.001 190.157 304.082 190.157C303.164 190.157 302.773 190.767 302.773 191.776C302.773 194.35 306.62 194.596 306.62 197.815C306.62 199.552 305.783 200.689 304.028 200.689C302.273 200.689 301.463 199.552 301.463 197.815V197.17H302.655V197.888C302.655 198.916 303.082 199.525 304.001 199.525C304.919 199.525 305.338 198.916 305.338 197.888C305.338 195.332 301.509 195.087 301.509 191.858C301.509 190.094 302.327 188.993 304.046 188.993C305.765 188.993 306.602 190.157 306.602 191.894Z" fill="#263238"/>
<path d="M312.131 194.223V195.369H309.339V199.443H312.777V200.608H308.057V189.148H312.777V190.348H309.339V194.259L312.131 194.223Z" fill="#263238"/>
<path d="M316.806 189.148C318.625 189.148 319.362 190.057 319.362 191.767V192.677C319.362 193.941 318.916 194.723 317.934 195.042C318.98 195.351 319.38 196.206 319.38 197.433V199.252C319.338 199.722 319.417 200.195 319.607 200.626H318.316C318.129 200.187 318.054 199.709 318.097 199.234V197.415C318.097 196.124 317.497 195.715 316.433 195.715H315.524V200.608H314.241V189.148H316.806ZM316.479 194.55C317.497 194.55 318.097 194.223 318.097 192.977V191.876C318.097 190.849 317.725 190.312 316.77 190.312H315.533V194.55H316.479Z" fill="#263238"/>
<path d="M321.99 189.148L323.855 199.152L325.674 189.148H326.847L324.701 200.608H322.818L320.663 189.148H321.99Z" fill="#263238"/>
<path d="M332.268 194.223V195.369H329.466V199.443H332.913V200.608H328.193V189.148H332.913V190.348H329.466V194.259L332.268 194.223Z" fill="#263238"/>
<path d="M336.97 189.148C338.789 189.148 339.525 190.057 339.525 191.767V192.677C339.525 193.941 339.08 194.723 338.097 195.042C339.143 195.351 339.543 196.206 339.543 197.433V199.252C339.502 199.722 339.58 200.195 339.771 200.626H338.479C338.293 200.187 338.218 199.709 338.261 199.234V197.415C338.261 196.124 337.652 195.715 336.588 195.715H335.678V200.608H334.405V189.148H336.97ZM336.642 194.55C337.652 194.55 338.261 194.223 338.261 192.977V191.876C338.261 190.849 337.888 190.312 336.933 190.312H335.687V194.55H336.642Z" fill="#263238"/>
<path d="M348.129 194.223V195.369H345.337V199.443H348.775V200.608H344.091V189.148H348.812V190.348H345.374V194.259L348.129 194.223Z" fill="#263238"/>
<path d="M352.831 189.148C354.65 189.148 355.387 190.057 355.387 191.767V192.677C355.387 193.941 354.941 194.723 353.959 195.042C355.005 195.351 355.405 196.206 355.405 197.433V199.252C355.368 199.722 355.446 200.193 355.633 200.626H354.341C354.154 200.187 354.079 199.709 354.123 199.234V197.415C354.123 196.124 353.523 195.715 352.458 195.715H351.549V200.608H350.276V189.148H352.831ZM352.504 194.55C353.523 194.55 354.123 194.223 354.123 192.977V191.876C354.123 190.849 353.75 190.312 352.795 190.312H351.558V194.55H352.504Z" fill="#263238"/>
<path d="M359.607 189.148C361.426 189.148 362.163 190.057 362.163 191.767V192.677C362.163 193.941 361.717 194.723 360.735 195.042C361.79 195.351 362.181 196.206 362.181 197.433V199.252C362.144 199.722 362.222 200.193 362.408 200.626H361.117C360.935 200.186 360.86 199.709 360.899 199.234V197.415C360.899 196.124 360.298 195.715 359.234 195.715H358.325V200.608H357.042V189.148H359.607ZM359.28 194.55C360.298 194.55 360.899 194.223 360.899 192.977V191.876C360.899 190.849 360.526 190.312 359.58 190.312H358.334V194.55H359.28Z" fill="#263238"/>
<path d="M363.737 191.912C363.737 190.157 364.601 189.029 366.356 189.029C368.111 189.029 368.993 190.157 368.993 191.912V197.842C368.993 199.579 368.084 200.725 366.356 200.725C364.628 200.725 363.737 199.579 363.737 197.842V191.912ZM364.992 197.906C364.992 198.952 365.437 199.561 366.356 199.561C367.275 199.561 367.711 198.952 367.711 197.906V191.849C367.711 190.812 367.284 190.193 366.356 190.193C365.428 190.193 364.992 190.812 364.992 191.849V197.906Z" fill="#263238"/>
<path d="M373.086 189.148C374.905 189.148 375.633 190.057 375.633 191.767V192.677C375.633 193.941 375.196 194.723 374.214 195.042C375.26 195.351 375.651 196.206 375.651 197.433V199.252C375.612 199.723 375.694 200.195 375.887 200.626H374.587C374.409 200.185 374.337 199.708 374.378 199.234V197.415C374.378 196.124 373.768 195.715 372.704 195.715H371.795V200.608H370.521V189.148H373.086ZM372.759 194.55C373.768 194.55 374.378 194.223 374.378 192.977V191.876C374.378 190.849 373.996 190.312 373.05 190.312H371.804V194.55H372.759Z" fill="#263238"/>
<path d="M271.44 153.969V159.289C271.44 163.382 273.259 164.855 276.106 164.855C278.953 164.855 280.772 163.382 280.772 159.289V146.693C280.772 142.6 278.953 141.045 276.106 141.045C273.259 141.045 271.44 142.6 271.44 146.693V148.412H262.927L264.565 115.179H288.302V123.364H272.668L271.932 137.007C272.735 135.659 273.892 134.558 275.278 133.822C276.663 133.086 278.223 132.744 279.79 132.832C286.42 132.832 289.794 137.498 289.794 145.929V158.662C289.794 167.83 285.247 173.068 276.37 173.068C267.493 173.068 262.946 167.83 262.946 158.662V153.969H271.44Z" fill="#263238"/>
<path d="M296.652 128.939C296.652 119.771 301.481 114.533 310.294 114.533C319.107 114.533 323.937 119.771 323.937 128.939V158.734C323.937 167.902 319.107 173.141 310.294 173.141C301.481 173.141 296.652 167.902 296.652 158.734V128.939ZM305.656 159.307C305.656 163.4 307.475 164.955 310.322 164.955C313.168 164.955 314.987 163.4 314.987 159.307V128.384C314.987 124.292 313.168 122.736 310.322 122.736C307.475 122.736 305.656 124.292 305.656 128.384V159.307Z" fill="#263238"/>
<path d="M330.703 128.939C330.703 119.771 335.533 114.533 344.346 114.533C353.159 114.533 357.988 119.771 357.988 128.939V158.734C357.988 167.902 353.159 173.141 344.346 173.141C335.533 173.141 330.703 167.902 330.703 158.734V128.939ZM339.707 159.307C339.707 163.4 341.526 164.955 344.373 164.955C347.22 164.955 349.039 163.4 349.039 159.307V128.384C349.039 124.292 347.22 122.736 344.373 122.736C341.526 122.736 339.707 124.292 339.707 128.384V159.307Z" fill="#263238"/>
<path d="M103.984 260.871C109.662 260.022 115.445 261.462 120.064 264.873C127.494 270.584 133.142 285.109 136.062 305.445C138.981 325.782 140.609 334.549 157.772 337.442C174.934 340.334 216.061 339.16 240.627 338.587C265.192 338.014 264.055 315.159 243.492 312.876C222.928 310.593 208.685 316.077 187.23 311.33C165.775 306.582 206.33 300.298 237.198 304.872C268.066 309.447 281.763 310.584 298.343 308.874" stroke="#263238" stroke-width="1.23162" stroke-linecap="round" stroke-linejoin="round"/>
<path d="M103.984 230.457C103.984 230.457 120.637 230.584 125.202 247.737C129.768 264.891 131.487 288.883 132.06 307.764C132.633 326.645 133.206 342.625 154.916 347.191C176.625 351.757 235.488 350.047 251.486 346.618C267.484 343.189 285.201 327.764 272.059 324.335C258.917 320.907 240.627 324.335 247.503 328.883C254.378 333.43 272.65 332.312 294.36 329.456" stroke="#263238" stroke-width="1.23162" stroke-linecap="round" stroke-linejoin="round"/>
<path d="M107.404 290.111C107.404 290.111 117.581 289.201 121.556 300.724C125.53 312.248 120.646 314.876 122.883 320.624C125.121 326.372 139.054 321.006 138.991 325.772C138.927 330.119 133.415 331.347 101.656 329.474C60.1281 327.027 32.6522 333.457 34.8623 337.441C37.0723 341.425 70.2508 338.35 62.2836 344.517C54.3164 350.683 34.8623 343.607 19.8192 343.189C4.77609 342.771 2.12036 346.281 2.12036 346.281" stroke="#263238" stroke-width="1.23162" stroke-linecap="round" stroke-linejoin="round"/>
<path d="M108.632 127.638H8.64137C6.85318 127.638 5.40356 129.088 5.40356 130.876V320.306C5.40356 322.094 6.85318 323.544 8.64137 323.544H108.632C110.42 323.544 111.869 322.094 111.869 320.306V130.876C111.869 129.088 110.42 127.638 108.632 127.638Z" fill="#263238" stroke="#263238" stroke-width="0.615809" stroke-linecap="round" stroke-linejoin="round"/>
<path d="M109.277 156.979H7.94995V232.021H109.277V156.979Z" fill="#616161"/>
<path d="M109.277 244.218H7.94995V319.26H109.277V244.218Z" fill="#616161"/>
<path d="M96.7081 253.358H39.1824V312.021H96.7081V253.358Z" fill="#FF69B4" stroke="#263238" stroke-width="0.615809" stroke-linecap="round" stroke-linejoin="round"/>
<path d="M96.7081 165.364H39.1824V179.843H96.7081V165.364Z" fill="#FF69B4" stroke="#263238" stroke-width="0.615809" stroke-linecap="round" stroke-linejoin="round"/>
<path d="M96.7081 193.167H39.1824V207.647H96.7081V193.167Z" fill="#FF69B4" stroke="#263238" stroke-width="0.615809" stroke-linecap="round" stroke-linejoin="round"/>
<path d="M94.78 158.661L93.6704 161.708H42.7112L41.6016 158.661H30.8059V172.049H41.6016L42.7112 169.002H93.6704L94.78 172.049H107.004V158.661H94.78Z" fill="#263238" stroke="#263238" stroke-width="0.615809" stroke-linecap="round" stroke-linejoin="round"/>
<path d="M94.78 173.268L93.6704 176.306H42.7112L41.6016 173.268H30.8059V186.647H41.6016L42.7112 183.609H93.6704L94.78 186.647H107.004V173.268H94.78Z" fill="#263238" stroke="#263238" stroke-width="0.615809" stroke-linecap="round" stroke-linejoin="round"/>
<path d="M94.78 187.865L93.6704 190.912H42.7112L41.6016 187.865H30.8059V201.253H41.6016L42.7112 198.206H93.6704L94.78 201.253H107.004V187.865H94.78Z" fill="#263238" stroke="#263238" stroke-width="0.615809" stroke-linecap="round" stroke-linejoin="round"/>
<path d="M94.78 202.462L93.6704 205.509H42.7112L41.6016 202.462H30.8059V215.85H41.6016L42.7112 212.812H93.6704L94.78 215.85H107.004V202.462H94.78Z" fill="#263238" stroke="#263238" stroke-width="0.615809" stroke-linecap="round" stroke-linejoin="round"/>
<path d="M94.78 217.069L93.6704 220.107H42.7112L41.6016 217.069H30.8059V230.457H41.6016L42.7112 227.41H93.6704L94.78 230.457H107.004V217.069H94.78Z" fill="#263238" stroke="#263238" stroke-width="0.615809" stroke-linecap="round" stroke-linejoin="round"/>
<path d="M94.78 246.273L93.6704 249.311H42.7112L41.6016 246.273H30.8059V259.652H41.6016L42.7112 256.614H93.6704L94.78 259.652H107.004V246.273H94.78Z" fill="#263238" stroke="#263238" stroke-width="0.615809" stroke-linecap="round" stroke-linejoin="round"/>
<path d="M94.78 260.871L93.6704 263.917H42.7112L41.6016 260.871H30.8059V274.258H41.6016L42.7112 271.221H93.6704L94.78 274.258H107.004V260.871H94.78Z" fill="#263238" stroke="#263238" stroke-width="0.615809" stroke-linecap="round" stroke-linejoin="round"/>
<path d="M94.78 275.477L93.6704 278.515H42.7112L41.6016 275.477H30.8059V288.856H41.6016L42.7112 285.818H93.6704L94.78 288.856H107.004V275.477H94.78Z" fill="#263238" stroke="#263238" stroke-width="0.615809" stroke-linecap="round" stroke-linejoin="round"/>
<path d="M94.78 290.074L93.6704 293.121H42.7112L41.6016 290.074H30.8059V303.462H41.6016L42.7112 300.415H93.6704L94.78 303.462H107.004V290.074H94.78Z" fill="#263238" stroke="#263238" stroke-width="0.615809" stroke-linecap="round" stroke-linejoin="round"/>
<path d="M94.78 304.681L93.6704 307.718H42.7112L41.6016 304.681H30.8059V318.059H41.6016L42.7112 315.022H93.6704L94.78 318.059H107.004V304.681H94.78Z" fill="#263238" stroke="#263238" stroke-width="0.615809" stroke-linecap="round" stroke-linejoin="round"/>
<path d="M106.985 234.358H9.98755V243.499H106.985V234.358Z" fill="white"/>
<path d="M18.1729 238.834C18.1729 238.328 18.023 237.834 17.7422 237.414C17.4614 236.993 17.0622 236.666 16.5952 236.472C16.1282 236.279 15.6144 236.228 15.1186 236.327C14.6229 236.426 14.1675 236.669 13.8101 237.026C13.4527 237.384 13.2092 237.839 13.1106 238.335C13.012 238.831 13.0626 239.345 13.2561 239.812C13.4495 240.279 13.7771 240.678 14.1973 240.958C14.6176 241.239 15.1117 241.389 15.6172 241.389C15.9528 241.389 16.2852 241.323 16.5952 241.195C16.9053 241.066 17.187 240.878 17.4244 240.641C17.6617 240.403 17.8499 240.122 17.9784 239.812C18.1068 239.501 18.1729 239.169 18.1729 238.834Z" fill="#263238" stroke="#263238" stroke-width="0.615809" stroke-linecap="round" stroke-linejoin="round"/>
<path d="M24.1301 241.389C25.5416 241.389 26.6858 240.245 26.6858 238.834C26.6858 237.422 25.5416 236.278 24.1301 236.278C22.7187 236.278 21.5745 237.422 21.5745 238.834C21.5745 240.245 22.7187 241.389 24.1301 241.389Z" fill="#FF69B4" stroke="#263238" stroke-width="0.615809" stroke-linecap="round" stroke-linejoin="round"/>
<path d="M35.1985 238.834C35.1985 238.328 35.0486 237.834 34.7678 237.414C34.487 236.993 34.0879 236.666 33.6209 236.472C33.1539 236.279 32.64 236.228 32.1443 236.327C31.6485 236.426 31.1931 236.669 30.8357 237.026C30.4783 237.384 30.2349 237.839 30.1363 238.335C30.0377 238.831 30.0883 239.345 30.2817 239.812C30.4751 240.279 30.8027 240.678 31.223 240.958C31.6433 241.239 32.1374 241.389 32.6428 241.389C33.3207 241.389 33.9707 241.12 34.45 240.641C34.9293 240.161 35.1985 239.511 35.1985 238.834Z" fill="#263238" stroke="#263238" stroke-width="0.615809" stroke-linecap="round" stroke-linejoin="round"/>
<path d="M106.985 146.747H9.98755V155.888H106.985V146.747Z" fill="white"/>
<path d="M18.1729 151.24C18.1729 150.734 18.023 150.24 17.7422 149.82C17.4614 149.4 17.0622 149.072 16.5952 148.879C16.1282 148.685 15.6144 148.635 15.1186 148.733C14.6229 148.832 14.1675 149.075 13.8101 149.433C13.4527 149.79 13.2092 150.245 13.1106 150.741C13.012 151.237 13.0626 151.751 13.2561 152.218C13.4495 152.685 13.7771 153.084 14.1973 153.365C14.6176 153.646 15.1117 153.795 15.6172 153.795C15.9528 153.795 16.2852 153.729 16.5952 153.601C16.9053 153.472 17.187 153.284 17.4244 153.047C17.6617 152.81 17.8499 152.528 17.9784 152.218C18.1068 151.908 18.1729 151.575 18.1729 151.24Z" fill="white" stroke="#263238" stroke-width="0.615809" stroke-linecap="round" stroke-linejoin="round"/>
<path d="M26.6766 151.24C26.6766 150.734 26.5267 150.24 26.2458 149.82C25.965 149.4 25.5659 149.072 25.0989 148.879C24.6319 148.685 24.118 148.635 23.6223 148.733C23.1265 148.832 22.6711 149.075 22.3137 149.433C21.9563 149.79 21.7129 150.245 21.6143 150.741C21.5157 151.237 21.5663 151.751 21.7597 152.218C21.9532 152.685 22.2807 153.084 22.701 153.365C23.1213 153.646 23.6154 153.795 24.1209 153.795C24.7987 153.795 25.4487 153.526 25.928 153.047C26.4073 152.568 26.6766 151.918 26.6766 151.24Z" fill="#FF69B4" stroke="#263238" stroke-width="0.615809" stroke-linecap="round" stroke-linejoin="round"/>
<path d="M35.1985 151.24C35.1985 150.734 35.0486 150.24 34.7678 149.82C34.487 149.4 34.0879 149.072 33.6209 148.879C33.1539 148.685 32.64 148.635 32.1443 148.733C31.6485 148.832 31.1931 149.075 30.8357 149.433C30.4783 149.79 30.2349 150.245 30.1363 150.741C30.0377 151.237 30.0883 151.751 30.2817 152.218C30.4751 152.685 30.8027 153.084 31.223 153.365C31.6433 153.646 32.1374 153.795 32.6428 153.795C33.3207 153.795 33.9707 153.526 34.45 153.047C34.9293 152.568 35.1985 151.918 35.1985 151.24Z" fill="white" stroke="#263238" stroke-width="0.615809" stroke-linecap="round" stroke-linejoin="round"/>
<path d="M106.985 134.987H9.98755V144.128H106.985V134.987Z" fill="white"/>
<path d="M18.1729 139.462C18.1729 138.956 18.023 138.462 17.7422 138.042C17.4614 137.622 17.0622 137.294 16.5952 137.101C16.1282 136.907 15.6144 136.857 15.1186 136.955C14.6229 137.054 14.1675 137.297 13.8101 137.655C13.4527 138.012 13.2092 138.468 13.1106 138.963C13.012 139.459 13.0626 139.973 13.2561 140.44C13.4495 140.907 13.7771 141.306 14.1973 141.587C14.6176 141.868 15.1117 142.018 15.6172 142.018C15.9528 142.018 16.2852 141.952 16.5952 141.823C16.9053 141.695 17.187 141.506 17.4244 141.269C17.6617 141.032 17.8499 140.75 17.9784 140.44C18.1068 140.13 18.1729 139.798 18.1729 139.462Z" fill="#FF69B4" stroke="#263238" stroke-width="0.615809" stroke-linecap="round" stroke-linejoin="round"/>
<path d="M26.6766 139.462C26.6766 138.956 26.5267 138.462 26.2458 138.042C25.965 137.622 25.5659 137.294 25.0989 137.101C24.6319 136.907 24.118 136.857 23.6223 136.955C23.1265 137.054 22.6711 137.297 22.3137 137.655C21.9563 138.012 21.7129 138.468 21.6143 138.963C21.5157 139.459 21.5663 139.973 21.7597 140.44C21.9532 140.907 22.2807 141.306 22.701 141.587C23.1213 141.868 23.6154 142.018 24.1209 142.018C24.7987 142.018 25.4487 141.748 25.928 141.269C26.4073 140.79 26.6766 140.14 26.6766 139.462Z" fill="#263238" stroke="#263238" stroke-width="0.615809" stroke-linecap="round" stroke-linejoin="round"/>
<path d="M35.1985 139.462C35.1985 138.956 35.0486 138.462 34.7678 138.042C34.487 137.622 34.0879 137.294 33.6209 137.101C33.1539 136.907 32.64 136.857 32.1443 136.955C31.6485 137.054 31.1931 137.297 30.8357 137.655C30.4783 138.012 30.2349 138.468 30.1363 138.963C30.0377 139.459 30.0883 139.973 30.2817 140.44C30.4751 140.907 30.8027 141.306 31.223 141.587C31.6433 141.868 32.1374 142.018 32.6428 142.018C33.3207 142.018 33.9707 141.748 34.45 141.269C34.9293 140.79 35.1985 140.14 35.1985 139.462Z" fill="#263238" stroke="#263238" stroke-width="0.615809" stroke-linecap="round" stroke-linejoin="round"/>
<path d="M26.2312 158.889H10.2332V165.746H26.2312V158.889Z" fill="#263238" stroke="#263238" stroke-width="0.615809" stroke-linecap="round" stroke-linejoin="round"/>
<path d="M26.2312 173.741H10.2332V180.599H26.2312V173.741Z" fill="#263238" stroke="#263238" stroke-width="0.615809" stroke-linecap="round" stroke-linejoin="round"/>
<path d="M26.2312 188.602H10.2332V195.46H26.2312V188.602Z" fill="#FF69B4" stroke="#263238" stroke-width="0.615809" stroke-linecap="round" stroke-linejoin="round"/>
<path d="M26.2312 203.454H10.2332V210.312H26.2312V203.454Z" fill="#FF69B4" stroke="#263238" stroke-width="0.615809" stroke-linecap="round" stroke-linejoin="round"/>
<path d="M26.2312 218.315H10.2332V225.173H26.2312V218.315Z" fill="#FF69B4" stroke="#263238" stroke-width="0.615809" stroke-linecap="round" stroke-linejoin="round"/>
<path d="M26.2312 246.119H10.2332V252.976H26.2312V246.119Z" fill="#FF69B4" stroke="#263238" stroke-width="0.615809" stroke-linecap="round" stroke-linejoin="round"/>
<path d="M26.2312 260.979H10.2332V267.837H26.2312V260.979Z" fill="#263238" stroke="#263238" stroke-width="0.615809" stroke-linecap="round" stroke-linejoin="round"/>
<path d="M26.2312 275.832H10.2332V282.69H26.2312V275.832Z" fill="#FF69B4" stroke="#263238" stroke-width="0.615809" stroke-linecap="round" stroke-linejoin="round"/>
<path d="M26.2312 290.693H10.2332V297.55H26.2312V290.693Z" fill="#263238" stroke="#263238" stroke-width="0.615809" stroke-linecap="round" stroke-linejoin="round"/>
<path d="M26.2312 305.546H10.2332V312.404H26.2312V305.546Z" fill="#FF69B4" stroke="#263238" stroke-width="0.615809" stroke-linecap="round" stroke-linejoin="round"/>
<path d="M160.227 86.083C160.227 86.083 144.893 89.9847 140.637 95.8146C136.38 101.645 119.127 141.289 119.127 141.289C119.127 141.289 113.534 147.565 119.582 153.613C125.63 159.661 137.726 161.899 142.21 156.524C146.694 151.148 153.179 125.828 154.079 122.918C154.979 120.007 161.692 95.3599 162.365 94.0229C163.038 92.686 163.683 86.8834 160.227 86.083Z" fill="#BDBDBD" stroke="#263238" stroke-width="0.615809" stroke-linecap="round" stroke-linejoin="round"/>
<path d="M160.227 86.083C160.227 86.083 144.893 89.9847 140.636 95.8146C138.062 99.3344 130.732 115.251 125.339 127.265C127.958 126.738 138.872 125.119 151.65 131.558C152.878 127.265 153.788 123.873 154.079 122.918C154.988 120.007 161.691 95.3599 162.364 94.0229C163.037 92.686 163.683 86.8834 160.227 86.083Z" fill="#263238" stroke="#263238" stroke-width="0.615809" stroke-linecap="round" stroke-linejoin="round"/>
<path d="M205.157 34.4329C207.794 35.9217 209.907 38.19 211.205 40.9267C213.024 45.1832 213.024 51.677 213.024 51.677C213.024 51.677 241.7 50.7675 252.678 50.5583C263.655 50.3491 271.05 53.023 271.268 58.3982C271.486 63.7733 269.031 74.3053 262.982 78.3343C256.934 82.3634 238.117 75.8696 228.485 73.1866C218.854 70.5036 215.488 71.3676 208.549 70.4581C201.61 69.5486 199.581 66.8747 198.463 62.6182C197.344 58.3618 199.581 50.2945 199.581 43.8007C199.581 37.3069 198.663 33.0869 205.157 34.4329Z" fill="#BDBDBD" stroke="#263238" stroke-width="0.615809" stroke-linecap="round" stroke-linejoin="round"/>
<path d="M247.048 61.9809C247.048 61.9809 243.019 72.2855 235.624 77.888C230.322 81.908 223.164 84.2 219.554 85.164C206.63 81.526 188.385 79.8162 177.717 82.1809C177.717 82.1809 162.819 85.7461 160.227 86.0735C157.635 86.4009 151.478 107.128 150.177 121.38C148.877 135.632 153.097 170.948 153.097 173.54C153.097 176.132 154.716 219.224 157.308 231.211C159.9 243.198 162.819 259.406 163.137 261.661C163.456 263.917 165.73 280.761 165.73 286.281C165.73 291.802 163.101 305.08 163.101 305.08C163.101 305.08 151.441 312.857 146.903 317.386C142.365 321.915 150.241 326.699 155.998 327.754C165.766 329.573 177.371 319.978 177.371 319.978L190.386 314.803C193.833 313.421 194.852 309.719 194.933 306.399L195.534 282.407C197.571 290.895 199.244 299.472 200.554 308.136C201.082 311.683 201.627 315.412 203.765 318.277C204.951 319.922 206.485 321.285 208.258 322.27C209.549 322.87 210.922 322.743 212.223 323.489C214.615 324.871 215.597 327.854 217.916 329.355C222.91 332.309 228.643 333.776 234.442 333.584C234.442 333.584 247.393 334.239 248.085 327.108C248.776 319.978 231.232 308.318 231.232 308.318C231.232 308.318 228.639 261.024 226.684 245.472C224.729 229.92 219.554 204.654 219.554 193.631C219.554 182.608 224.738 130.775 224.738 130.775C224.738 130.775 225.265 129.411 226.075 127.192L226.93 126.719C234.324 122.462 254.933 105.882 261.654 95.3504C268.093 85.2732 270.422 66.3647 270.604 60.835" fill="#BDBDBD"/>
<path d="M247.048 61.9809C247.048 61.9809 243.019 72.2855 235.624 77.888C230.322 81.908 223.164 84.2 219.554 85.164C206.63 81.526 188.385 79.8162 177.717 82.1809C177.717 82.1809 162.819 85.7461 160.227 86.0735C157.635 86.4009 151.478 107.128 150.177 121.38C148.877 135.632 153.097 170.948 153.097 173.54C153.097 176.132 154.716 219.224 157.308 231.211C159.9 243.198 162.819 259.406 163.137 261.661C163.456 263.917 165.73 280.761 165.73 286.281C165.73 291.802 163.101 305.08 163.101 305.08C163.101 305.08 151.441 312.857 146.903 317.386C142.365 321.915 150.241 326.699 155.998 327.754C165.766 329.573 177.371 319.978 177.371 319.978L190.386 314.803C193.833 313.421 194.852 309.719 194.933 306.399L195.534 282.407C197.571 290.895 199.244 299.472 200.554 308.136C201.082 311.683 201.627 315.412 203.765 318.277C204.951 319.922 206.485 321.285 208.258 322.27C209.549 322.87 210.922 322.743 212.223 323.489C214.615 324.871 215.597 327.854 217.916 329.355C222.91 332.309 228.643 333.776 234.442 333.584C234.442 333.584 247.393 334.239 248.085 327.108C248.776 319.978 231.232 308.318 231.232 308.318C231.232 308.318 228.639 261.024 226.684 245.472C224.729 229.92 219.554 204.654 219.554 193.631C219.554 182.608 224.738 130.775 224.738 130.775C224.738 130.775 225.265 129.411 226.075 127.192L226.93 126.719C234.324 122.462 254.933 105.882 261.654 95.3504C268.093 85.2732 270.422 66.3647 270.604 60.835" stroke="#263238" stroke-width="0.615809" stroke-linecap="round" stroke-linejoin="round"/>
<path d="M248.021 327.109C248.667 319.979 231.168 308.319 231.168 308.319C231.168 308.319 230.968 304.681 230.64 299.087C220.491 301.533 210.085 302.754 199.645 302.725C199.954 304.544 200.257 306.363 200.554 308.182C201.082 311.729 201.627 315.458 203.765 318.323C204.951 319.968 206.485 321.331 208.258 322.316C209.549 322.916 210.923 322.789 212.223 323.535C214.615 324.917 215.597 327.9 217.917 329.401C222.91 332.355 228.643 333.822 234.442 333.63C234.442 333.63 247.366 334.239 248.021 327.109Z" fill="#263238" stroke="#263238" stroke-width="0.615809" stroke-linecap="round" stroke-linejoin="round"/>
<path d="M190.386 314.804C193.833 313.422 194.852 309.72 194.934 306.401C194.934 305.145 194.997 303.89 195.025 302.635C184.682 302.285 174.409 300.815 164.384 298.251C163.765 302.035 163.165 305.082 163.165 305.082C163.165 305.082 151.505 312.858 146.967 317.387C142.428 321.917 150.305 326.701 156.062 327.756C165.83 329.575 177.435 319.979 177.435 319.979L190.386 314.804Z" fill="#263238" stroke="#263238" stroke-width="0.615809" stroke-linecap="round" stroke-linejoin="round"/>
<path d="M248.021 327.109C248.021 327.009 248.021 326.9 248.021 326.791C245.158 328.838 241.851 330.179 238.371 330.702C228.13 332.521 218.799 327.291 216.298 325.017C213.796 322.743 212.205 320.915 208.33 318.414C204.456 315.913 200.954 309.756 200.954 309.756L200.809 309.983C201.291 312.939 201.964 315.895 203.737 318.278C204.924 319.923 206.458 321.286 208.23 322.271C209.522 322.871 210.895 322.743 212.196 323.489C214.588 324.872 215.57 327.855 217.889 329.356C222.883 332.309 228.616 333.777 234.415 333.585C234.415 333.585 247.366 334.24 248.021 327.109Z" fill="white" stroke="#263238" stroke-width="0.615809" stroke-linecap="round" stroke-linejoin="round"/>
<path d="M190.386 314.803C193.397 313.593 194.552 310.628 194.861 307.69C191.878 309.509 184.984 313.484 180.609 315.23C174.925 317.504 171.05 324.325 159.909 324.325C151.96 324.325 147.603 321.215 145.757 319.423C144.775 323.261 151.214 326.854 156.053 327.754C165.821 329.573 177.426 319.978 177.426 319.978L190.386 314.803Z" fill="white" stroke="#263238" stroke-width="0.615809" stroke-linecap="round" stroke-linejoin="round"/>
<path d="M232.432 79.9985C228.371 82.2527 224.045 83.9912 219.554 85.1736C206.63 81.5356 188.385 79.8257 177.717 82.1904C177.717 82.1904 162.819 85.7557 160.227 86.0831C157.635 86.4105 151.478 107.138 150.177 121.39C149.377 130.194 150.677 147.001 151.787 159.198C178.79 169.093 207.585 165.7 221.664 163.008C223.082 146.856 224.692 130.785 224.692 130.785C224.692 130.785 225.22 129.421 226.029 127.201L226.884 126.729C231.914 123.836 243.028 115.26 251.75 106.72C234.242 101.672 232.123 87.8657 232.432 79.9985Z" fill="#263238" stroke="#263238" stroke-width="0.615809" stroke-linecap="round" stroke-linejoin="round"/>
<path d="M207.33 95.4508C207.276 92.7307 206.581 90.0617 205.301 87.661C204.021 85.2603 202.192 83.1958 199.963 81.6356C191.687 80.8352 183.592 80.8898 177.717 82.1904C177.717 82.1904 173.597 83.1817 169.313 84.1549C166.429 87.2131 164.805 91.2472 164.766 95.4508C164.766 105.555 174.297 113.75 186.048 113.75C197.799 113.75 207.33 105.555 207.33 95.4508Z" fill="#616161" stroke="#263238" stroke-width="0.615809" stroke-linecap="round" stroke-linejoin="round"/>
<path d="M200.955 309.756C205.814 311.465 210.965 312.189 216.107 311.884C227.285 311.402 231.168 308.319 231.168 308.319C231.168 308.319 228.576 261.025 226.621 245.472C224.665 229.92 219.49 204.654 219.49 193.631C219.49 187.137 221.309 166.464 222.773 150.585L222.073 150.666C220.212 150.883 218.326 150.696 216.544 150.118C214.761 149.54 213.124 148.586 211.743 147.319C210.363 146.052 209.271 144.503 208.542 142.777C207.814 141.051 207.466 139.188 207.521 137.315L207.83 126.974C199.401 127.524 190.939 127.28 182.556 126.246C167.494 124.546 151.942 119.443 151.942 119.443L150.305 119.944C150.305 120.426 150.205 120.908 150.159 121.381C148.868 135.642 153.079 170.948 153.079 173.54C153.079 176.132 154.698 219.224 157.29 231.211C159.882 243.199 162.801 259.406 163.12 261.661C163.438 263.917 165.712 280.761 165.712 286.282C165.712 291.802 163.22 304.581 163.129 305.054C165.075 305.654 169.15 306.873 176.489 308.955C187.658 312.12 194.87 308.31 194.87 308.31C194.87 304.426 195.516 282.398 195.516 282.398C195.516 282.398 199.627 301.043 200.955 309.756Z" fill="white" stroke="#263238" stroke-width="0.615809" stroke-linecap="round" stroke-linejoin="round"/>
<path d="M163.947 133.095L193.042 137.879V155.814L176.698 172.167L163.547 156.214L163.947 133.095Z" stroke="#263238" stroke-width="0.615809" stroke-linecap="round" stroke-linejoin="round"/>
<path d="M184.929 233.949C182.828 222.125 181.291 210.447 181.291 202.062L169.631 194.286" stroke="#263238" stroke-width="0.615809" stroke-linecap="round" stroke-linejoin="round"/>
<path d="M195.534 282.408C195.534 282.408 190.623 263.426 186.566 242.635" stroke="#263238" stroke-width="0.615809" stroke-linecap="round" stroke-linejoin="round"/>
<path d="M204.201 181.917C204.466 182.967 204.869 183.976 205.402 184.919C208.994 191.285 214.169 192.094 214.169 192.094L214.97 175.351" stroke="#263238" stroke-width="0.615809" stroke-linecap="round" stroke-linejoin="round"/>
<path d="M205.402 172.158C204.782 173.365 204.338 174.655 204.083 175.987" stroke="#263238" stroke-width="0.615809" stroke-linecap="round" stroke-linejoin="round"/>
<path d="M219.69 223.089C220.109 225.299 220.536 227.473 220.954 229.547" stroke="#263238" stroke-width="0.615809" stroke-linecap="round" stroke-linejoin="round"/>
<path d="M214.169 192.094C214.169 192.094 216.225 204.382 218.599 217.26" stroke="#263238" stroke-width="0.615809" stroke-linecap="round" stroke-linejoin="round"/>
<path d="M175.834 75.2964L175.652 84.8461C175.652 84.8461 172.36 87.4837 171.705 94.3959C171.05 101.308 177.635 107.738 185.038 107.738C192.441 107.738 198.872 101.972 200.027 96.706C201.182 91.44 199.69 83.8639 199.69 83.8639L199.199 72.3406C199.199 72.3406 191.923 76.9426 185.038 75.6329C178.153 74.3233 176.152 71.8403 176.152 71.8403L175.834 75.2964Z" fill="#BDBDBD" stroke="#263238" stroke-width="0.615809" stroke-linecap="round" stroke-linejoin="round"/>
<path d="M170.659 50.3763C170.659 50.3763 170.213 55.8333 171.396 57.1702C172.578 58.5072 174.206 59.5349 174.506 58.3526C174.806 57.1702 174.943 50.9675 175.243 49.6396C175.543 48.3117 170.805 46.6473 170.659 50.3763Z" fill="#BDBDBD" stroke="#263238" stroke-width="0.615809" stroke-linecap="round" stroke-linejoin="round"/>
<path d="M173.551 50.2854C173.551 50.2854 172.196 61.1994 172.196 66.4836C172.196 71.7678 170.15 73.7596 176.744 77.1975C183.337 80.6354 189.049 81.0719 193.606 79.4712C198.162 77.8705 200.673 74.0142 200.882 70.8128C201.091 67.6114 201.109 62.6273 201.109 62.6273C201.109 62.6273 207.476 56.9339 206.129 52.6228C204.783 48.3118 201.8 53.7597 201.8 53.7597C203.055 50.0148 203.67 46.0854 203.619 42.1363C203.392 36.2064 198.835 35.5243 197.007 35.5243C195.179 35.5243 184.02 32.0955 178.79 35.4788C173.56 38.8622 173.551 50.2854 173.551 50.2854Z" fill="#BDBDBD" stroke="#263238" stroke-width="0.615809" stroke-linecap="round" stroke-linejoin="round"/>
<path d="M201.819 53.7144C203.073 49.9695 203.688 46.0401 203.638 42.091C203.41 36.1611 198.854 35.479 197.025 35.479H196.907C195.943 37.0979 194.752 39.5899 194.752 39.5899L195.661 40.0447C195.661 40.0447 194.752 45.0651 196.571 45.7472C198.39 46.4294 197.48 48.021 197.48 50.7586C197.48 53.4961 199.081 55.5425 199.99 55.5425C200.709 55.5425 201.809 53.7235 202.301 52.9323C202 53.3688 201.819 53.7144 201.819 53.7144Z" fill="#263238" stroke="#263238" stroke-width="0.615809" stroke-linecap="round" stroke-linejoin="round"/>
<path d="M183.81 54.3691C183.81 54.3691 181.891 56.1336 182.773 57.4705C183.656 58.8075 186.912 59.5351 187.803 57.9071C188.109 57.3598 188.218 56.7237 188.11 56.1058C188.002 55.488 187.685 54.926 187.212 54.5147" stroke="#263238" stroke-width="0.615809" stroke-linecap="round" stroke-linejoin="round"/>
<path d="M181.746 52.5956C181.746 53.5053 181.382 54.2148 180.927 54.2148C180.472 54.2148 180.118 53.4871 180.118 52.5956C180.118 51.7041 180.482 50.9673 180.927 50.9673C181.373 50.9673 181.746 51.695 181.746 52.5956Z" fill="#263238"/>
<path d="M191.569 53.0142C191.569 53.9239 191.205 54.6425 190.759 54.6425C190.313 54.6425 189.94 53.9148 189.94 53.0142C189.94 52.1137 190.304 51.395 190.759 51.395C191.214 51.395 191.569 52.1046 191.569 53.0142Z" fill="#263238"/>
<path d="M189.131 48.6029C189.131 48.6029 192.232 46.5292 195.188 49.7852" stroke="#263238" stroke-width="0.615809" stroke-linecap="round" stroke-linejoin="round"/>
<path d="M184.42 63.1457C184.03 62.9497 183.603 62.8386 183.167 62.8198C182.732 62.8009 182.297 62.8748 181.891 63.0366C181.547 63.1798 181.237 63.3951 180.983 63.6681C180.729 63.9411 180.536 64.2654 180.418 64.6191C180.418 64.6191 178.526 66.138 180.518 66.8019C182.51 67.4658 186.885 67.4203 187.985 67.3749C188.426 67.3137 188.825 67.0823 189.097 66.7304C189.369 66.3785 189.492 65.934 189.44 65.4922C189.45 65.3132 189.412 65.1348 189.331 64.9752C189.249 64.8155 189.127 64.6801 188.976 64.5827C188.518 63.8336 187.805 63.2755 186.967 63.0114C186.13 62.7473 185.225 62.795 184.42 63.1457Z" fill="#666666" stroke="#263238" stroke-width="0.452221" stroke-linecap="round" stroke-linejoin="round"/>
<path d="M179.99 65.1918C183.053 64.7073 186.184 64.8935 189.167 65.7375" stroke="#263238" stroke-width="0.525991" stroke-linecap="round" stroke-linejoin="round"/>
<path d="M169.677 37.7616L194.069 41.1904C194.069 41.1904 204.319 38.4619 205.238 36.4065C206.157 34.351 202.728 24.101 200.9 21.5908C199.072 19.0806 181.527 23.4098 176.052 24.3193C170.577 25.2288 166.484 26.5839 166.739 29.367C166.994 32.15 169.677 37.7616 169.677 37.7616Z" fill="#FF69B4" stroke="#263238" stroke-width="0.615809" stroke-linecap="round" stroke-linejoin="round"/>
<path d="M169.677 37.7617C169.677 37.7617 155.771 49.1577 155.543 50.2855C155.316 51.4133 175.825 51.8771 182.21 50.5129C188.594 49.1486 194.033 41.1632 194.033 41.1632L169.677 37.7617Z" fill="white" stroke="#263238" stroke-width="0.615809" stroke-linecap="round" stroke-linejoin="round"/>
<path d="M154.479 188.856L192.678 166.455C193.943 167.402 195.474 167.927 197.054 167.956C198.634 167.985 200.183 167.516 201.482 166.616C202.78 165.715 203.763 164.429 204.29 162.94C204.817 161.45 204.863 159.832 204.42 158.315L196.443 162.981L194.624 159.843L202.61 155.168C201.504 154.037 200.07 153.282 198.512 153.011C196.953 152.741 195.349 152.968 193.926 153.66C192.504 154.353 191.336 155.476 190.588 156.87C189.84 158.264 189.55 159.858 189.759 161.426L151.514 183.827C150.249 182.88 148.718 182.355 147.138 182.326C145.558 182.297 144.009 182.766 142.711 183.666C141.412 184.567 140.429 185.853 139.902 187.342C139.375 188.832 139.329 190.45 139.773 191.967L147.54 187.419L149.359 190.566L141.592 195.113C142.696 196.247 144.129 197.004 145.688 197.276C147.247 197.548 148.852 197.321 150.275 196.628C151.697 195.934 152.865 194.81 153.612 193.415C154.359 192.02 154.646 190.424 154.434 188.856H154.479Z" fill="#FF69B4" stroke="#263238" stroke-width="0.615809" stroke-linecap="round" stroke-linejoin="round"/>
<path d="M187.012 172.204C187.012 172.204 191.714 175.569 191.714 178.697C191.714 181.826 186.111 185.2 182.309 185.419C178.508 185.637 177.826 181.39 178.499 179.152C179.172 176.915 187.012 172.204 187.012 172.204Z" fill="#BDBDBD" stroke="#263238" stroke-width="0.615809" stroke-linecap="round" stroke-linejoin="round"/>
<path d="M137.726 144.2C137.726 144.2 163.71 158.752 167.294 158.315C170.877 157.879 175.807 154.732 178.499 155.587C181.191 156.442 188.576 167.911 189.249 169.93C189.922 171.949 183.874 179.116 182.528 180.234C181.182 181.353 176.925 185.837 176.034 186.282C175.143 186.728 169.313 191.885 166.403 191.885C163.492 191.885 158.563 189.638 158.108 188.52C157.653 187.401 158.781 185.837 158.781 185.837L145.139 179.561C145.139 179.561 119.145 165.446 114.67 158.279C110.196 151.112 121.392 138.343 121.392 138.343" fill="#BDBDBD"/>
<path d="M137.726 144.2C137.726 144.2 163.71 158.752 167.294 158.315C170.877 157.879 175.807 154.732 178.499 155.587C181.191 156.442 188.576 167.911 189.249 169.93C189.922 171.949 183.874 179.116 182.528 180.234C181.182 181.353 176.925 185.837 176.034 186.282C175.143 186.728 169.313 191.885 166.403 191.885C163.492 191.885 158.563 189.638 158.108 188.52C157.653 187.401 158.781 185.837 158.781 185.837L145.139 179.561C145.139 179.561 119.145 165.446 114.67 158.279C110.196 151.112 121.392 138.343 121.392 138.343" stroke="#263238" stroke-width="0.615809" stroke-linecap="round" stroke-linejoin="round"/>
<path d="M167.749 179.37C168.543 179.475 169.28 179.84 169.846 180.407C170.411 180.975 170.774 181.713 170.877 182.507C171.332 185.418 170.204 190.575 170.204 190.575" stroke="#263238" stroke-width="0.615809" stroke-linecap="round" stroke-linejoin="round"/>
<path d="M172.896 175.114C172.896 175.114 176.034 175.341 176.034 178.252V186.319" stroke="#263238" stroke-width="0.615809" stroke-linecap="round" stroke-linejoin="round"/>
<path d="M176.261 167.056C176.261 167.056 182.082 171.313 182.528 173.777C182.775 175.935 182.775 178.114 182.528 180.271" stroke="#263238" stroke-width="0.615809" stroke-linecap="round" stroke-linejoin="round"/>
<path d="M202.21 151.695C203.519 151.695 206.985 143.018 206.985 139.762C206.985 136.506 208.503 112.65 211.978 101.563C214.47 93.6234 216.616 87.4934 217.635 84.6466C214.988 83.9736 212.178 83.3733 209.249 82.8276C207.512 88.0936 202.21 104.528 200.045 114.978C197.444 127.557 198.09 142.527 198.308 143.828C198.526 145.128 200.927 151.695 202.21 151.695Z" fill="white" stroke="#263238" stroke-width="0.615809" stroke-linecap="round" stroke-linejoin="round"/>
<path d="M206.993 125.375L199.546 124.397C198.935 124.317 198.374 124.747 198.294 125.359L197.513 131.302C197.433 131.913 197.864 132.474 198.475 132.555L205.922 133.532C206.533 133.613 207.094 133.182 207.175 132.57L207.955 126.628C208.035 126.016 207.604 125.455 206.993 125.375Z" fill="white" stroke="#263238" stroke-width="0.614884" stroke-linecap="round" stroke-linejoin="round"/>
<path d="M205.034 127.263L201.184 126.752C200.571 126.67 200.009 127.101 199.928 127.713L199.541 130.626C199.46 131.238 199.891 131.8 200.503 131.882L204.353 132.393C204.965 132.474 205.528 132.043 205.609 131.431L205.995 128.519C206.077 127.906 205.646 127.344 205.034 127.263Z" fill="white" stroke="#263238" stroke-width="0.615809" stroke-linecap="round" stroke-linejoin="round"/>
<path d="M153.633 148.438C154.943 148.438 158.408 139.762 158.408 136.506C158.408 133.25 159.927 109.394 163.401 98.3069C165.602 91.2856 167.103 86.8018 167.949 84.4644C164.556 85.2283 161.337 85.9286 160.264 86.0651C159.463 86.1651 158.335 88.1933 157.108 91.3583C155.671 95.8149 153.915 101.608 152.56 107.256C151.5 111.91 150.725 116.624 150.241 121.372C149.935 126.135 149.914 130.912 150.177 135.678C150.177 135.842 150.195 135.969 150.232 136.06C150.368 137.379 152.333 148.438 153.633 148.438Z" fill="white" stroke="#263238" stroke-width="0.615809" stroke-linecap="round" stroke-linejoin="round"/>
<path d="M158.577 119.145L151.098 118.347C150.484 118.282 149.932 118.727 149.867 119.341L149.23 125.31C149.165 125.924 149.609 126.475 150.224 126.541L157.703 127.339C158.317 127.404 158.868 126.959 158.934 126.345L159.571 120.376C159.636 119.762 159.191 119.211 158.577 119.145Z" fill="white" stroke="#263238" stroke-width="0.615809" stroke-linecap="round" stroke-linejoin="round"/>
<path d="M156.597 120.472L152.735 120.06C152.121 119.994 151.57 120.439 151.504 121.053L151.192 123.974C151.127 124.589 151.572 125.14 152.186 125.205L156.048 125.617C156.662 125.683 157.213 125.238 157.279 124.624L157.59 121.703C157.656 121.088 157.211 120.537 156.597 120.472Z" fill="white" stroke="#263238" stroke-width="0.615809" stroke-linecap="round" stroke-linejoin="round"/>
</g>
<defs>
<clipPath id="clip0_3670_1772">
<rect width="400" height="354.601" fill="white"/>
</clipPath>
</defs>
</svg>
