<svg width="20" height="20" viewBox="0 0 20 20" fill="none" xmlns="http://www.w3.org/2000/svg">
<path d="M4.60455 2.72727C4.60455 3.76406 3.76406 4.60455 2.72727 4.60455C1.69048 4.60455 0.85 3.76406 0.85 2.72727C0.85 1.69048 1.69048 0.85 2.72727 0.85C3.76406 0.85 4.60455 1.69048 4.60455 2.72727ZM4.60455 10C4.60455 11.0368 3.76406 11.8773 2.72727 11.8773C1.69048 11.8773 0.85 11.0368 0.85 10C0.85 8.96321 1.69048 8.12273 2.72727 8.12273C3.76406 8.12273 4.60455 8.96321 4.60455 10ZM4.60455 17.2727C4.60455 18.3095 3.76406 19.15 2.72727 19.15C1.69048 19.15 0.85 18.3095 0.85 17.2727C0.85 16.2359 1.69048 15.3955 2.72727 15.3955C3.76406 15.3955 4.60455 16.2359 4.60455 17.2727ZM11.8773 2.72727C11.8773 3.76406 11.0368 4.60455 10 4.60455C8.96321 4.60455 8.12273 3.76406 8.12273 2.72727C8.12273 1.69048 8.96321 0.85 10 0.85C11.0368 0.85 11.8773 1.69048 11.8773 2.72727ZM11.8773 10C11.8773 11.0368 11.0368 11.8773 10 11.8773C8.96321 11.8773 8.12273 11.0368 8.12273 10C8.12273 8.96321 8.96321 8.12273 10 8.12273C11.0368 8.12273 11.8773 8.96321 11.8773 10ZM11.8773 17.2727C11.8773 18.3095 11.0368 19.15 10 19.15C8.96321 19.15 8.12273 18.3095 8.12273 17.2727C8.12273 16.2359 8.96321 15.3955 10 15.3955C11.0368 15.3955 11.8773 16.2359 11.8773 17.2727ZM19.15 2.72727C19.15 3.76406 18.3095 4.60455 17.2727 4.60455C16.2359 4.60455 15.3955 3.76406 15.3955 2.72727C15.3955 1.69048 16.2359 0.85 17.2727 0.85C18.3095 0.85 19.15 1.69048 19.15 2.72727ZM19.15 10C19.15 11.0368 18.3095 11.8773 17.2727 11.8773C16.2359 11.8773 15.3955 11.0368 15.3955 10C15.3955 8.96321 16.2359 8.12273 17.2727 8.12273C18.3095 8.12273 19.15 8.96321 19.15 10ZM19.15 17.2727C19.15 18.3095 18.3095 19.15 17.2727 19.15C16.2359 19.15 15.3955 18.3095 15.3955 17.2727C15.3955 16.2359 16.2359 15.3955 17.2727 15.3955C18.3095 15.3955 19.15 16.2359 19.15 17.2727Z" stroke="#999999" stroke-width="1.7"/>
</svg>
